<svg xmlns="http://www.w3.org/2000/svg" xmlns:xlink="http://www.w3.org/1999/xlink" width="337" zoomAndPan="magnify" viewBox="0 0 252.75 242.999999" height="324" preserveAspectRatio="xMidYMid meet" version="1.0"><defs><g/><clipPath id="964ecbd170"><path d="M 38.480469 0.230469 L 213.980469 0.230469 L 213.980469 149.480469 L 38.480469 149.480469 Z M 38.480469 0.230469 " clip-rule="nonzero"/></clipPath><clipPath id="23e1314ecf"><path d="M 205.570312 0.308594 L 46.890625 0.308594 C 42.25 0.308594 38.480469 4.078125 38.480469 8.710938 L 38.480469 108.839844 C 38.480469 113.472656 42.25 117.242188 46.890625 117.242188 L 110.480469 117.242188 C 110.148438 121.402344 108.710938 125.445312 106.234375 128.9375 L 100.546875 128.9375 C 97.386719 128.9375 94.441406 130.351562 92.464844 132.820312 L 86.320312 140.496094 C 84.992188 142.15625 84.738281 144.378906 85.660156 146.292969 C 86.582031 148.210938 88.476562 149.398438 90.605469 149.398438 L 161.855469 149.398438 C 163.980469 149.398438 165.875 148.210938 166.796875 146.292969 C 167.71875 144.378906 167.464844 142.15625 166.136719 140.496094 L 159.992188 132.820312 C 158.019531 130.351562 155.070312 128.9375 151.910156 128.9375 L 146.226562 128.9375 C 143.746094 125.445312 142.308594 121.402344 141.980469 117.242188 L 205.570312 117.242188 C 210.207031 117.242188 213.980469 113.472656 213.980469 108.839844 L 213.980469 8.710938 C 213.980469 4.078125 210.207031 0.308594 205.570312 0.308594 Z M 46.890625 6.15625 L 205.570312 6.15625 C 206.980469 6.15625 208.128906 7.300781 208.128906 8.710938 L 208.128906 93.855469 L 44.328125 93.855469 L 44.328125 8.710938 C 44.328125 7.300781 45.476562 6.15625 46.890625 6.15625 Z M 155.425781 136.472656 L 161.09375 143.554688 L 91.367188 143.554688 L 97.035156 136.472656 C 97.894531 135.398438 99.175781 134.785156 100.546875 134.785156 L 151.910156 134.785156 C 153.285156 134.785156 154.566406 135.398438 155.425781 136.472656 Z M 139.386719 128.9375 L 113.070312 128.9375 C 114.980469 125.289062 116.082031 121.304688 116.34375 117.242188 L 136.121094 117.242188 C 136.378906 121.304688 137.480469 125.289062 139.386719 128.9375 Z M 205.570312 111.398438 L 46.890625 111.398438 C 45.476562 111.398438 44.328125 110.25 44.328125 108.839844 L 44.328125 99.703125 L 208.128906 99.703125 L 208.128906 108.839844 C 208.128906 110.25 206.980469 111.398438 205.570312 111.398438 Z M 55.824219 55.851562 L 59.386719 55.851562 C 60.511719 59.246094 63.714844 61.699219 67.480469 61.699219 L 67.730469 61.699219 L 67.730469 64.621094 L 65.953125 64.621094 C 64.074219 64.621094 62.300781 65.445312 61.089844 66.875 C 59.875 68.308594 59.355469 70.191406 59.664062 72.042969 L 61.300781 81.867188 C 61.894531 85.425781 64.945312 88.007812 68.558594 88.007812 L 84.453125 88.007812 C 88.0625 88.007812 91.113281 85.425781 91.707031 81.867188 L 93.34375 72.042969 C 93.652344 70.191406 93.132812 68.308594 91.917969 66.875 C 90.707031 65.445312 88.933594 64.621094 87.054688 64.621094 L 85.28125 64.621094 L 85.28125 61.699219 L 85.527344 61.699219 C 89.296875 61.699219 92.496094 59.246094 93.621094 55.851562 L 97.183594 55.851562 C 100.296875 55.851562 102.828125 53.320312 102.828125 50.210938 L 102.828125 43.953125 C 102.828125 40.84375 100.296875 38.3125 97.183594 38.3125 L 93.621094 38.3125 C 92.496094 34.917969 89.296875 32.464844 85.527344 32.464844 L 79.429688 32.464844 L 79.429688 29.039062 C 82.832031 27.832031 85.28125 24.582031 85.28125 20.773438 C 85.28125 15.9375 81.34375 12 76.503906 12 C 71.664062 12 67.730469 15.9375 67.730469 20.773438 C 67.730469 24.582031 70.175781 27.832031 73.578125 29.039062 L 73.578125 32.464844 L 67.480469 32.464844 C 63.714844 32.464844 60.511719 34.917969 59.386719 38.3125 L 55.824219 38.3125 C 52.710938 38.3125 50.179688 40.84375 50.179688 43.953125 L 50.179688 50.210938 C 50.179688 53.320312 52.710938 55.851562 55.824219 55.851562 Z M 76.503906 17.847656 C 78.117188 17.847656 79.429688 19.160156 79.429688 20.773438 C 79.429688 22.382812 78.117188 23.695312 76.503906 23.695312 C 74.890625 23.695312 73.578125 22.382812 73.578125 20.773438 C 73.578125 19.160156 74.890625 17.847656 76.503906 17.847656 Z M 87.457031 70.65625 C 87.527344 70.742188 87.605469 70.882812 87.574219 71.082031 L 85.9375 80.90625 C 85.816406 81.632812 85.191406 82.164062 84.453125 82.164062 L 68.558594 82.164062 C 67.816406 82.164062 67.195312 81.632812 67.074219 80.90625 L 65.433594 71.082031 C 65.402344 70.882812 65.480469 70.742188 65.550781 70.65625 C 65.625 70.570312 65.753906 70.46875 65.953125 70.46875 L 87.054688 70.46875 C 87.257812 70.46875 87.382812 70.570312 87.457031 70.65625 Z M 79.429688 64.621094 L 73.578125 64.621094 L 73.578125 61.699219 L 79.429688 61.699219 Z M 96.980469 50.003906 L 94.054688 50.003906 L 94.054688 44.160156 L 96.980469 44.160156 Z M 64.804688 40.984375 C 64.804688 39.511719 66.003906 38.3125 67.480469 38.3125 L 85.527344 38.3125 C 87.003906 38.3125 88.203125 39.511719 88.203125 40.984375 L 88.203125 53.179688 C 88.203125 54.652344 87.003906 55.851562 85.527344 55.851562 L 67.480469 55.851562 C 66.003906 55.851562 64.804688 54.652344 64.804688 53.179688 Z M 56.03125 44.160156 L 58.953125 44.160156 L 58.953125 50.003906 L 56.03125 50.003906 Z M 67.734375 44.160156 C 67.734375 42.542969 69.042969 41.234375 70.65625 41.234375 L 70.660156 41.234375 C 72.277344 41.234375 73.585938 42.542969 73.585938 44.160156 C 73.585938 45.773438 72.277344 47.082031 70.660156 47.082031 C 69.046875 47.082031 67.734375 45.773438 67.734375 44.160156 Z M 79.433594 44.160156 C 79.433594 42.542969 80.742188 41.234375 82.359375 41.234375 L 82.363281 41.234375 C 83.976562 41.234375 85.285156 42.542969 85.285156 44.160156 C 85.285156 45.773438 83.976562 47.082031 82.363281 47.082031 C 80.746094 47.082031 79.433594 45.773438 79.433594 44.160156 Z M 164.253906 82.164062 L 199.355469 82.164062 C 200.96875 82.164062 202.28125 80.855469 202.28125 79.238281 L 202.28125 58.484375 C 202.28125 53.90625 199.195312 49.851562 194.78125 48.625 L 190.578125 47.460938 L 190.578125 46.035156 C 192.398438 43.972656 193.503906 41.269531 193.503906 38.3125 L 193.503906 33.6875 C 195.285156 32.261719 196.429688 30.078125 196.429688 27.628906 L 196.429688 20.773438 C 196.429688 19.15625 195.121094 17.847656 193.503906 17.847656 L 181.804688 17.847656 C 173.738281 17.847656 167.179688 24.40625 167.179688 32.464844 C 167.179688 34.078125 168.488281 35.390625 170.105469 35.390625 L 170.105469 38.3125 C 170.105469 41.269531 171.210938 43.972656 173.03125 46.035156 L 173.03125 47.457031 L 168.824219 48.625 C 164.410156 49.851562 161.328125 53.90625 161.328125 58.484375 L 161.328125 79.238281 C 161.328125 80.855469 162.640625 82.164062 164.253906 82.164062 Z M 178.878906 49.636719 C 179.816406 49.878906 180.792969 50.003906 181.804688 50.003906 C 182.8125 50.003906 183.792969 49.878906 184.730469 49.636719 L 184.730469 50.003906 C 184.730469 51.617188 183.417969 52.929688 181.804688 52.929688 C 180.191406 52.929688 178.878906 51.617188 178.878906 50.003906 Z M 181.804688 23.695312 L 190.578125 23.695312 L 190.578125 27.628906 C 190.578125 28.683594 189.71875 29.542969 188.664062 29.542969 L 173.53125 29.542969 C 174.738281 26.140625 177.992188 23.695312 181.804688 23.695312 Z M 187.65625 35.390625 L 187.65625 38.3125 C 187.65625 41.535156 185.03125 44.160156 181.804688 44.160156 C 178.578125 44.160156 175.953125 41.535156 175.953125 38.3125 L 175.953125 35.390625 Z M 167.179688 58.484375 C 167.179688 56.519531 168.5 54.785156 170.390625 54.257812 L 173.691406 53.34375 C 175.007812 56.527344 178.148438 58.777344 181.804688 58.777344 C 185.460938 58.777344 188.601562 56.527344 189.917969 53.34375 L 193.21875 54.257812 C 195.109375 54.785156 196.429688 56.519531 196.429688 58.484375 L 196.429688 76.316406 L 167.179688 76.316406 Z M 126.921875 32.464844 L 134.550781 32.464844 C 134.550781 32.46875 134.554688 32.46875 134.558594 32.472656 L 150.902344 43.648438 C 151.402344 43.988281 151.976562 44.160156 152.554688 44.160156 C 153.164062 44.160156 153.773438 43.96875 154.289062 43.589844 C 155.292969 42.851562 155.714844 41.558594 155.347656 40.371094 L 152.878906 32.386719 C 156.007812 31.898438 158.40625 29.1875 158.40625 25.925781 L 158.40625 15.617188 C 158.40625 12.011719 155.46875 9.078125 151.863281 9.078125 L 126.921875 9.078125 C 123.3125 9.078125 120.378906 12.011719 120.378906 15.617188 L 120.378906 25.925781 C 120.378906 29.53125 123.3125 32.464844 126.921875 32.464844 Z M 126.230469 15.617188 C 126.230469 15.234375 126.539062 14.925781 126.921875 14.925781 L 151.863281 14.925781 C 152.246094 14.925781 152.554688 15.234375 152.554688 15.617188 L 152.554688 25.925781 C 152.554688 26.308594 152.246094 26.617188 151.863281 26.617188 C 149.019531 26.617188 146.703125 28.933594 146.703125 31.773438 C 146.703125 32.066406 146.75 32.359375 146.835938 32.636719 L 147.285156 34.089844 L 137.953125 27.710938 C 137.050781 27.003906 135.929688 26.621094 134.78125 26.621094 L 126.921875 26.621094 C 126.539062 26.621094 126.230469 26.308594 126.230469 25.929688 Z M 100.144531 59.9375 C 100.609375 61.007812 101.664062 61.699219 102.828125 61.699219 L 109.464844 61.699219 C 110.476562 63.445312 112.367188 64.621094 114.53125 64.621094 L 137.929688 64.621094 C 141.15625 64.621094 143.78125 62 143.78125 58.777344 L 143.78125 47.082031 C 143.78125 43.859375 141.15625 41.234375 137.929688 41.234375 L 114.53125 41.234375 C 111.304688 41.234375 108.679688 43.859375 108.679688 47.082031 L 108.679688 48.265625 L 100.695312 56.777344 C 99.898438 57.625 99.683594 58.867188 100.144531 59.9375 Z M 113.738281 51.421875 C 114.246094 50.878906 114.53125 50.164062 114.53125 49.421875 L 114.53125 47.082031 L 137.929688 47.082031 L 137.929688 58.777344 L 114.53125 58.777344 C 114.53125 57.160156 113.21875 55.851562 111.605469 55.851562 L 109.582031 55.851562 Z M 154.769531 67.632812 L 148.765625 69.132812 C 148.011719 68.167969 146.839844 67.546875 145.523438 67.546875 L 118.636719 67.546875 C 116.371094 67.546875 114.53125 69.386719 114.53125 71.648438 L 114.53125 86.828125 C 114.53125 89.09375 116.371094 90.933594 118.636719 90.933594 L 145.523438 90.933594 C 147.789062 90.933594 149.628906 89.09375 149.628906 86.828125 L 149.628906 82.457031 L 157.761719 72.296875 C 158.546875 71.316406 158.617188 69.945312 157.941406 68.890625 C 157.261719 67.835938 155.988281 67.328125 154.769531 67.632812 Z M 144.59375 79.386719 C 144.070312 80.042969 143.78125 80.867188 143.78125 81.710938 L 143.78125 85.085938 L 120.378906 85.085938 L 120.378906 73.394531 L 144.210938 73.394531 C 144.453125 73.847656 144.789062 74.25 145.207031 74.578125 C 145.964844 75.167969 146.894531 75.433594 147.828125 75.347656 Z M 129.15625 20.773438 C 129.15625 19.15625 130.464844 17.847656 132.078125 17.847656 L 146.703125 17.847656 C 148.320312 17.847656 149.628906 19.15625 149.628906 20.773438 C 149.628906 22.386719 148.320312 23.695312 146.703125 23.695312 L 132.078125 23.695312 C 130.464844 23.695312 129.15625 22.386719 129.15625 20.773438 Z M 117.453125 52.929688 C 117.453125 51.316406 118.765625 50.003906 120.378906 50.003906 L 132.078125 50.003906 C 133.695312 50.003906 135.003906 51.316406 135.003906 52.929688 C 135.003906 54.542969 133.695312 55.851562 132.078125 55.851562 L 120.378906 55.851562 C 118.765625 55.851562 117.453125 54.542969 117.453125 52.929688 Z M 140.855469 79.238281 C 140.855469 80.855469 139.542969 82.164062 137.929688 82.164062 L 126.230469 82.164062 C 124.613281 82.164062 123.304688 80.855469 123.304688 79.238281 C 123.304688 77.625 124.613281 76.316406 126.230469 76.316406 L 137.929688 76.316406 C 139.542969 76.316406 140.855469 77.625 140.855469 79.238281 Z M 146.703125 105.550781 C 146.703125 107.164062 145.394531 108.472656 143.78125 108.472656 L 108.679688 108.472656 C 107.0625 108.472656 105.753906 107.164062 105.753906 105.550781 C 105.753906 103.933594 107.0625 102.625 108.679688 102.625 L 143.78125 102.625 C 145.394531 102.625 146.703125 103.933594 146.703125 105.550781 Z M 205.203125 105.550781 C 205.203125 107.164062 203.894531 108.472656 202.28125 108.472656 L 196.429688 108.472656 C 194.8125 108.472656 193.503906 107.164062 193.503906 105.550781 C 193.503906 103.933594 194.8125 102.625 196.429688 102.625 L 202.28125 102.625 C 203.894531 102.625 205.203125 103.933594 205.203125 105.550781 Z M 190.578125 105.550781 C 190.578125 107.164062 189.269531 108.472656 187.65625 108.472656 L 181.804688 108.472656 C 180.1875 108.472656 178.878906 107.164062 178.878906 105.550781 C 178.878906 103.933594 180.1875 102.625 181.804688 102.625 L 187.65625 102.625 C 189.269531 102.625 190.578125 103.933594 190.578125 105.550781 Z M 175.953125 105.550781 C 175.953125 107.164062 174.644531 108.472656 173.03125 108.472656 L 167.179688 108.472656 C 165.5625 108.472656 164.253906 107.164062 164.253906 105.550781 C 164.253906 103.933594 165.5625 102.625 167.179688 102.625 L 173.03125 102.625 C 174.644531 102.625 175.953125 103.933594 175.953125 105.550781 Z M 175.953125 105.550781 " clip-rule="nonzero"/></clipPath><linearGradient x1="12.000486" gradientTransform="matrix(0.365625, 0, 0, 0.365423, 32.62942, -20.155546)" y1="459.999523" x2="455.999994" gradientUnits="userSpaceOnUse" y2="16.000015" id="280e9392f0"><stop stop-opacity="1" stop-color="rgb(5.899048%, 37.298584%, 43.099976%)" offset="0"/><stop stop-opacity="1" stop-color="rgb(5.899048%, 37.298584%, 43.099976%)" offset="0.0625"/><stop stop-opacity="1" stop-color="rgb(5.899048%, 37.298584%, 43.099976%)" offset="0.09375"/><stop stop-opacity="1" stop-color="rgb(5.899048%, 37.298584%, 43.099976%)" offset="0.109375"/><stop stop-opacity="1" stop-color="rgb(6.02417%, 37.322998%, 43.106079%)" offset="0.117188"/><stop stop-opacity="1" stop-color="rgb(6.484985%, 37.416077%, 43.128967%)" offset="0.121094"/><stop stop-opacity="1" stop-color="rgb(6.822205%, 37.483215%, 43.145752%)" offset="0.125"/><stop stop-opacity="1" stop-color="rgb(7.157898%, 37.548828%, 43.162537%)" offset="0.128906"/><stop stop-opacity="1" stop-color="rgb(7.493591%, 37.615967%, 43.180847%)" offset="0.132813"/><stop stop-opacity="1" stop-color="rgb(7.829285%, 37.683105%, 43.197632%)" offset="0.136719"/><stop stop-opacity="1" stop-color="rgb(8.166504%, 37.750244%, 43.214417%)" offset="0.140625"/><stop stop-opacity="1" stop-color="rgb(8.502197%, 37.817383%, 43.231201%)" offset="0.144531"/><stop stop-opacity="1" stop-color="rgb(8.839417%, 37.884521%, 43.249512%)" offset="0.148438"/><stop stop-opacity="1" stop-color="rgb(9.17511%, 37.95166%, 43.266296%)" offset="0.152344"/><stop stop-opacity="1" stop-color="rgb(9.512329%, 38.018799%, 43.283081%)" offset="0.15625"/><stop stop-opacity="1" stop-color="rgb(9.848022%, 38.084412%, 43.299866%)" offset="0.160156"/><stop stop-opacity="1" stop-color="rgb(10.185242%, 38.15155%, 43.318176%)" offset="0.164063"/><stop stop-opacity="1" stop-color="rgb(10.520935%, 38.218689%, 43.334961%)" offset="0.167969"/><stop stop-opacity="1" stop-color="rgb(10.858154%, 38.285828%, 43.351746%)" offset="0.171875"/><stop stop-opacity="1" stop-color="rgb(11.193848%, 38.352966%, 43.36853%)" offset="0.175781"/><stop stop-opacity="1" stop-color="rgb(11.529541%, 38.420105%, 43.386841%)" offset="0.179688"/><stop stop-opacity="1" stop-color="rgb(11.865234%, 38.485718%, 43.403625%)" offset="0.183594"/><stop stop-opacity="1" stop-color="rgb(12.202454%, 38.552856%, 43.42041%)" offset="0.1875"/><stop stop-opacity="1" stop-color="rgb(12.538147%, 38.619995%, 43.437195%)" offset="0.191406"/><stop stop-opacity="1" stop-color="rgb(12.875366%, 38.687134%, 43.455505%)" offset="0.195313"/><stop stop-opacity="1" stop-color="rgb(13.21106%, 38.754272%, 43.47229%)" offset="0.199219"/><stop stop-opacity="1" stop-color="rgb(13.548279%, 38.821411%, 43.489075%)" offset="0.203125"/><stop stop-opacity="1" stop-color="rgb(13.883972%, 38.88855%, 43.505859%)" offset="0.207031"/><stop stop-opacity="1" stop-color="rgb(14.221191%, 38.955688%, 43.52417%)" offset="0.210938"/><stop stop-opacity="1" stop-color="rgb(14.556885%, 39.021301%, 43.540955%)" offset="0.214844"/><stop stop-opacity="1" stop-color="rgb(14.894104%, 39.08844%, 43.557739%)" offset="0.21875"/><stop stop-opacity="1" stop-color="rgb(15.229797%, 39.155579%, 43.574524%)" offset="0.222656"/><stop stop-opacity="1" stop-color="rgb(15.565491%, 39.222717%, 43.592834%)" offset="0.226563"/><stop stop-opacity="1" stop-color="rgb(15.901184%, 39.289856%, 43.609619%)" offset="0.230469"/><stop stop-opacity="1" stop-color="rgb(16.238403%, 39.356995%, 43.626404%)" offset="0.234375"/><stop stop-opacity="1" stop-color="rgb(16.574097%, 39.422607%, 43.643188%)" offset="0.238281"/><stop stop-opacity="1" stop-color="rgb(16.911316%, 39.489746%, 43.661499%)" offset="0.242187"/><stop stop-opacity="1" stop-color="rgb(17.247009%, 39.556885%, 43.678284%)" offset="0.246094"/><stop stop-opacity="1" stop-color="rgb(17.584229%, 39.624023%, 43.695068%)" offset="0.25"/><stop stop-opacity="1" stop-color="rgb(17.919922%, 39.691162%, 43.711853%)" offset="0.253906"/><stop stop-opacity="1" stop-color="rgb(18.257141%, 39.758301%, 43.730164%)" offset="0.257812"/><stop stop-opacity="1" stop-color="rgb(18.592834%, 39.825439%, 43.746948%)" offset="0.261719"/><stop stop-opacity="1" stop-color="rgb(18.930054%, 39.892578%, 43.763733%)" offset="0.265625"/><stop stop-opacity="1" stop-color="rgb(19.265747%, 39.958191%, 43.780518%)" offset="0.269531"/><stop stop-opacity="1" stop-color="rgb(19.60144%, 40.02533%, 43.798828%)" offset="0.273438"/><stop stop-opacity="1" stop-color="rgb(19.937134%, 40.092468%, 43.815613%)" offset="0.277344"/><stop stop-opacity="1" stop-color="rgb(20.274353%, 40.159607%, 43.832397%)" offset="0.28125"/><stop stop-opacity="1" stop-color="rgb(20.610046%, 40.226746%, 43.849182%)" offset="0.285156"/><stop stop-opacity="1" stop-color="rgb(20.947266%, 40.293884%, 43.867493%)" offset="0.289062"/><stop stop-opacity="1" stop-color="rgb(21.282959%, 40.359497%, 43.884277%)" offset="0.292969"/><stop stop-opacity="1" stop-color="rgb(21.620178%, 40.426636%, 43.901062%)" offset="0.296875"/><stop stop-opacity="1" stop-color="rgb(21.955872%, 40.493774%, 43.917847%)" offset="0.300781"/><stop stop-opacity="1" stop-color="rgb(22.293091%, 40.560913%, 43.936157%)" offset="0.304688"/><stop stop-opacity="1" stop-color="rgb(22.628784%, 40.628052%, 43.952942%)" offset="0.308594"/><stop stop-opacity="1" stop-color="rgb(22.966003%, 40.69519%, 43.969727%)" offset="0.3125"/><stop stop-opacity="1" stop-color="rgb(23.301697%, 40.762329%, 43.986511%)" offset="0.316406"/><stop stop-opacity="1" stop-color="rgb(23.63739%, 40.829468%, 44.004822%)" offset="0.320313"/><stop stop-opacity="1" stop-color="rgb(23.973083%, 40.895081%, 44.021606%)" offset="0.324219"/><stop stop-opacity="1" stop-color="rgb(24.310303%, 40.962219%, 44.038391%)" offset="0.328125"/><stop stop-opacity="1" stop-color="rgb(24.645996%, 41.029358%, 44.055176%)" offset="0.332031"/><stop stop-opacity="1" stop-color="rgb(24.983215%, 41.096497%, 44.073486%)" offset="0.335938"/><stop stop-opacity="1" stop-color="rgb(25.318909%, 41.163635%, 44.090271%)" offset="0.339844"/><stop stop-opacity="1" stop-color="rgb(25.656128%, 41.230774%, 44.107056%)" offset="0.34375"/><stop stop-opacity="1" stop-color="rgb(25.991821%, 41.296387%, 44.12384%)" offset="0.347656"/><stop stop-opacity="1" stop-color="rgb(26.329041%, 41.363525%, 44.142151%)" offset="0.351562"/><stop stop-opacity="1" stop-color="rgb(26.664734%, 41.430664%, 44.158936%)" offset="0.355469"/><stop stop-opacity="1" stop-color="rgb(27.001953%, 41.497803%, 44.17572%)" offset="0.359375"/><stop stop-opacity="1" stop-color="rgb(27.337646%, 41.564941%, 44.192505%)" offset="0.363281"/><stop stop-opacity="1" stop-color="rgb(27.67334%, 41.63208%, 44.210815%)" offset="0.367188"/><stop stop-opacity="1" stop-color="rgb(28.009033%, 41.699219%, 44.2276%)" offset="0.371094"/><stop stop-opacity="1" stop-color="rgb(28.346252%, 41.766357%, 44.244385%)" offset="0.375"/><stop stop-opacity="1" stop-color="rgb(28.681946%, 41.83197%, 44.261169%)" offset="0.378906"/><stop stop-opacity="1" stop-color="rgb(29.019165%, 41.899109%, 44.27948%)" offset="0.382812"/><stop stop-opacity="1" stop-color="rgb(29.354858%, 41.966248%, 44.296265%)" offset="0.386719"/><stop stop-opacity="1" stop-color="rgb(29.692078%, 42.033386%, 44.313049%)" offset="0.390625"/><stop stop-opacity="1" stop-color="rgb(30.027771%, 42.100525%, 44.329834%)" offset="0.394531"/><stop stop-opacity="1" stop-color="rgb(30.36499%, 42.167664%, 44.348145%)" offset="0.398438"/><stop stop-opacity="1" stop-color="rgb(30.700684%, 42.234802%, 44.364929%)" offset="0.402344"/><stop stop-opacity="1" stop-color="rgb(31.037903%, 42.301941%, 44.381714%)" offset="0.40625"/><stop stop-opacity="1" stop-color="rgb(31.373596%, 42.367554%, 44.398499%)" offset="0.410156"/><stop stop-opacity="1" stop-color="rgb(31.70929%, 42.434692%, 44.416809%)" offset="0.414062"/><stop stop-opacity="1" stop-color="rgb(32.044983%, 42.501831%, 44.433594%)" offset="0.417969"/><stop stop-opacity="1" stop-color="rgb(32.382202%, 42.56897%, 44.450378%)" offset="0.421875"/><stop stop-opacity="1" stop-color="rgb(32.717896%, 42.636108%, 44.467163%)" offset="0.425781"/><stop stop-opacity="1" stop-color="rgb(33.055115%, 42.703247%, 44.485474%)" offset="0.429687"/><stop stop-opacity="1" stop-color="rgb(33.390808%, 42.76886%, 44.502258%)" offset="0.433594"/><stop stop-opacity="1" stop-color="rgb(33.728027%, 42.835999%, 44.519043%)" offset="0.4375"/><stop stop-opacity="1" stop-color="rgb(34.063721%, 42.903137%, 44.535828%)" offset="0.441406"/><stop stop-opacity="1" stop-color="rgb(34.40094%, 42.970276%, 44.554138%)" offset="0.445312"/><stop stop-opacity="1" stop-color="rgb(34.736633%, 43.037415%, 44.570923%)" offset="0.449219"/><stop stop-opacity="1" stop-color="rgb(35.073853%, 43.104553%, 44.587708%)" offset="0.453125"/><stop stop-opacity="1" stop-color="rgb(35.409546%, 43.171692%, 44.604492%)" offset="0.457031"/><stop stop-opacity="1" stop-color="rgb(35.745239%, 43.238831%, 44.621277%)" offset="0.460938"/><stop stop-opacity="1" stop-color="rgb(36.080933%, 43.304443%, 44.638062%)" offset="0.464844"/><stop stop-opacity="1" stop-color="rgb(36.418152%, 43.371582%, 44.656372%)" offset="0.46875"/><stop stop-opacity="1" stop-color="rgb(36.753845%, 43.438721%, 44.673157%)" offset="0.472656"/><stop stop-opacity="1" stop-color="rgb(37.091064%, 43.505859%, 44.689941%)" offset="0.476562"/><stop stop-opacity="1" stop-color="rgb(37.426758%, 43.572998%, 44.706726%)" offset="0.480469"/><stop stop-opacity="1" stop-color="rgb(37.763977%, 43.640137%, 44.725037%)" offset="0.484375"/><stop stop-opacity="1" stop-color="rgb(38.09967%, 43.70575%, 44.741821%)" offset="0.488281"/><stop stop-opacity="1" stop-color="rgb(38.43689%, 43.772888%, 44.758606%)" offset="0.492188"/><stop stop-opacity="1" stop-color="rgb(38.772583%, 43.840027%, 44.775391%)" offset="0.496094"/><stop stop-opacity="1" stop-color="rgb(39.109802%, 43.907166%, 44.793701%)" offset="0.5"/><stop stop-opacity="1" stop-color="rgb(39.445496%, 43.974304%, 44.810486%)" offset="0.503906"/><stop stop-opacity="1" stop-color="rgb(39.781189%, 44.041443%, 44.827271%)" offset="0.507812"/><stop stop-opacity="1" stop-color="rgb(40.116882%, 44.108582%, 44.844055%)" offset="0.511719"/><stop stop-opacity="1" stop-color="rgb(40.454102%, 44.17572%, 44.862366%)" offset="0.515625"/><stop stop-opacity="1" stop-color="rgb(40.789795%, 44.241333%, 44.87915%)" offset="0.519531"/><stop stop-opacity="1" stop-color="rgb(41.127014%, 44.308472%, 44.895935%)" offset="0.523438"/><stop stop-opacity="1" stop-color="rgb(41.462708%, 44.37561%, 44.91272%)" offset="0.527344"/><stop stop-opacity="1" stop-color="rgb(41.799927%, 44.442749%, 44.93103%)" offset="0.53125"/><stop stop-opacity="1" stop-color="rgb(42.13562%, 44.509888%, 44.947815%)" offset="0.535156"/><stop stop-opacity="1" stop-color="rgb(42.472839%, 44.577026%, 44.9646%)" offset="0.539062"/><stop stop-opacity="1" stop-color="rgb(42.808533%, 44.642639%, 44.981384%)" offset="0.542969"/><stop stop-opacity="1" stop-color="rgb(43.145752%, 44.709778%, 44.999695%)" offset="0.546875"/><stop stop-opacity="1" stop-color="rgb(43.481445%, 44.776917%, 45.016479%)" offset="0.550781"/><stop stop-opacity="1" stop-color="rgb(43.817139%, 44.844055%, 45.033264%)" offset="0.554688"/><stop stop-opacity="1" stop-color="rgb(44.152832%, 44.911194%, 45.050049%)" offset="0.558594"/><stop stop-opacity="1" stop-color="rgb(44.490051%, 44.978333%, 45.068359%)" offset="0.5625"/><stop stop-opacity="1" stop-color="rgb(44.804382%, 45.011902%, 45.092773%)" offset="0.566406"/><stop stop-opacity="1" stop-color="rgb(45.120239%, 45.045471%, 45.118713%)" offset="0.570312"/><stop stop-opacity="1" stop-color="rgb(45.227051%, 44.764709%, 45.217896%)" offset="0.574219"/><stop stop-opacity="1" stop-color="rgb(45.333862%, 44.485474%, 45.317078%)" offset="0.578125"/><stop stop-opacity="1" stop-color="rgb(45.440674%, 44.204712%, 45.41626%)" offset="0.582031"/><stop stop-opacity="1" stop-color="rgb(45.549011%, 43.92395%, 45.516968%)" offset="0.585938"/><stop stop-opacity="1" stop-color="rgb(45.655823%, 43.643188%, 45.61615%)" offset="0.589844"/><stop stop-opacity="1" stop-color="rgb(45.762634%, 43.363953%, 45.716858%)" offset="0.59375"/><stop stop-opacity="1" stop-color="rgb(45.869446%, 43.083191%, 45.81604%)" offset="0.597656"/><stop stop-opacity="1" stop-color="rgb(45.977783%, 42.803955%, 45.915222%)" offset="0.601562"/><stop stop-opacity="1" stop-color="rgb(46.084595%, 42.523193%, 46.014404%)" offset="0.605469"/><stop stop-opacity="1" stop-color="rgb(46.191406%, 42.242432%, 46.115112%)" offset="0.609375"/><stop stop-opacity="1" stop-color="rgb(46.298218%, 41.96167%, 46.214294%)" offset="0.613281"/><stop stop-opacity="1" stop-color="rgb(46.406555%, 41.682434%, 46.315002%)" offset="0.617188"/><stop stop-opacity="1" stop-color="rgb(46.513367%, 41.401672%, 46.414185%)" offset="0.621094"/><stop stop-opacity="1" stop-color="rgb(46.621704%, 41.120911%, 46.514893%)" offset="0.625"/><stop stop-opacity="1" stop-color="rgb(46.728516%, 40.840149%, 46.614075%)" offset="0.628906"/><stop stop-opacity="1" stop-color="rgb(46.835327%, 40.560913%, 46.713257%)" offset="0.632813"/><stop stop-opacity="1" stop-color="rgb(46.942139%, 40.280151%, 46.812439%)" offset="0.636719"/><stop stop-opacity="1" stop-color="rgb(47.050476%, 39.99939%, 46.913147%)" offset="0.640625"/><stop stop-opacity="1" stop-color="rgb(47.157288%, 39.718628%, 47.012329%)" offset="0.644531"/><stop stop-opacity="1" stop-color="rgb(47.264099%, 39.439392%, 47.113037%)" offset="0.648438"/><stop stop-opacity="1" stop-color="rgb(47.370911%, 39.15863%, 47.212219%)" offset="0.652344"/><stop stop-opacity="1" stop-color="rgb(47.479248%, 38.879395%, 47.311401%)" offset="0.65625"/><stop stop-opacity="1" stop-color="rgb(47.58606%, 38.598633%, 47.410583%)" offset="0.660156"/><stop stop-opacity="1" stop-color="rgb(47.692871%, 38.317871%, 47.511292%)" offset="0.664062"/><stop stop-opacity="1" stop-color="rgb(47.799683%, 38.037109%, 47.610474%)" offset="0.667969"/><stop stop-opacity="1" stop-color="rgb(47.90802%, 37.757874%, 47.711182%)" offset="0.671875"/><stop stop-opacity="1" stop-color="rgb(48.014832%, 37.477112%, 47.810364%)" offset="0.675781"/><stop stop-opacity="1" stop-color="rgb(48.121643%, 37.19635%, 47.909546%)" offset="0.679688"/><stop stop-opacity="1" stop-color="rgb(48.228455%, 36.915588%, 48.008728%)" offset="0.683594"/><stop stop-opacity="1" stop-color="rgb(48.336792%, 36.636353%, 48.109436%)" offset="0.6875"/><stop stop-opacity="1" stop-color="rgb(48.443604%, 36.355591%, 48.208618%)" offset="0.691406"/><stop stop-opacity="1" stop-color="rgb(48.551941%, 36.074829%, 48.309326%)" offset="0.695312"/><stop stop-opacity="1" stop-color="rgb(48.658752%, 35.794067%, 48.408508%)" offset="0.699219"/><stop stop-opacity="1" stop-color="rgb(48.765564%, 35.514832%, 48.509216%)" offset="0.703125"/><stop stop-opacity="1" stop-color="rgb(48.872375%, 35.23407%, 48.608398%)" offset="0.707031"/><stop stop-opacity="1" stop-color="rgb(48.980713%, 34.953308%, 48.707581%)" offset="0.710938"/><stop stop-opacity="1" stop-color="rgb(49.087524%, 34.672546%, 48.806763%)" offset="0.714844"/><stop stop-opacity="1" stop-color="rgb(49.194336%, 34.393311%, 48.907471%)" offset="0.71875"/><stop stop-opacity="1" stop-color="rgb(49.301147%, 34.112549%, 49.006653%)" offset="0.722656"/><stop stop-opacity="1" stop-color="rgb(49.409485%, 33.833313%, 49.107361%)" offset="0.726562"/><stop stop-opacity="1" stop-color="rgb(49.516296%, 33.552551%, 49.206543%)" offset="0.730469"/><stop stop-opacity="1" stop-color="rgb(49.623108%, 33.27179%, 49.305725%)" offset="0.734375"/><stop stop-opacity="1" stop-color="rgb(49.729919%, 32.991028%, 49.404907%)" offset="0.738281"/><stop stop-opacity="1" stop-color="rgb(49.838257%, 32.711792%, 49.505615%)" offset="0.742188"/><stop stop-opacity="1" stop-color="rgb(49.945068%, 32.43103%, 49.604797%)" offset="0.746094"/><stop stop-opacity="1" stop-color="rgb(50.053406%, 32.150269%, 49.705505%)" offset="0.75"/><stop stop-opacity="1" stop-color="rgb(50.160217%, 31.869507%, 49.804688%)" offset="0.753906"/><stop stop-opacity="1" stop-color="rgb(50.267029%, 31.590271%, 49.90387%)" offset="0.757812"/><stop stop-opacity="1" stop-color="rgb(50.37384%, 31.309509%, 50.003052%)" offset="0.761719"/><stop stop-opacity="1" stop-color="rgb(50.482178%, 31.028748%, 50.10376%)" offset="0.765625"/><stop stop-opacity="1" stop-color="rgb(50.588989%, 30.747986%, 50.202942%)" offset="0.769531"/><stop stop-opacity="1" stop-color="rgb(50.695801%, 30.46875%, 50.30365%)" offset="0.773438"/><stop stop-opacity="1" stop-color="rgb(50.802612%, 30.187988%, 50.402832%)" offset="0.777344"/><stop stop-opacity="1" stop-color="rgb(50.91095%, 29.907227%, 50.50354%)" offset="0.78125"/><stop stop-opacity="1" stop-color="rgb(51.017761%, 29.626465%, 50.602722%)" offset="0.785156"/><stop stop-opacity="1" stop-color="rgb(51.124573%, 29.347229%, 50.701904%)" offset="0.789062"/><stop stop-opacity="1" stop-color="rgb(51.231384%, 29.066467%, 50.801086%)" offset="0.792969"/><stop stop-opacity="1" stop-color="rgb(51.339722%, 28.787231%, 50.901794%)" offset="0.796875"/><stop stop-opacity="1" stop-color="rgb(51.446533%, 28.50647%, 51.000977%)" offset="0.800781"/><stop stop-opacity="1" stop-color="rgb(51.554871%, 28.225708%, 51.101685%)" offset="0.804688"/><stop stop-opacity="1" stop-color="rgb(51.661682%, 27.944946%, 51.200867%)" offset="0.808594"/><stop stop-opacity="1" stop-color="rgb(51.768494%, 27.66571%, 51.300049%)" offset="0.8125"/><stop stop-opacity="1" stop-color="rgb(51.875305%, 27.384949%, 51.399231%)" offset="0.816406"/><stop stop-opacity="1" stop-color="rgb(51.983643%, 27.104187%, 51.499939%)" offset="0.820312"/><stop stop-opacity="1" stop-color="rgb(52.090454%, 26.823425%, 51.599121%)" offset="0.824219"/><stop stop-opacity="1" stop-color="rgb(52.197266%, 26.544189%, 51.699829%)" offset="0.828125"/><stop stop-opacity="1" stop-color="rgb(52.304077%, 26.263428%, 51.799011%)" offset="0.832031"/><stop stop-opacity="1" stop-color="rgb(52.412415%, 25.982666%, 51.898193%)" offset="0.835938"/><stop stop-opacity="1" stop-color="rgb(52.519226%, 25.701904%, 51.997375%)" offset="0.839844"/><stop stop-opacity="1" stop-color="rgb(52.626038%, 25.422668%, 52.098083%)" offset="0.84375"/><stop stop-opacity="1" stop-color="rgb(52.732849%, 25.141907%, 52.197266%)" offset="0.847656"/><stop stop-opacity="1" stop-color="rgb(52.841187%, 24.861145%, 52.297974%)" offset="0.851562"/><stop stop-opacity="1" stop-color="rgb(52.947998%, 24.580383%, 52.397156%)" offset="0.855469"/><stop stop-opacity="1" stop-color="rgb(53.05481%, 24.301147%, 52.497864%)" offset="0.859375"/><stop stop-opacity="1" stop-color="rgb(53.161621%, 24.020386%, 52.597046%)" offset="0.863281"/><stop stop-opacity="1" stop-color="rgb(53.269958%, 23.74115%, 52.696228%)" offset="0.867187"/><stop stop-opacity="1" stop-color="rgb(53.37677%, 23.460388%, 52.79541%)" offset="0.871094"/><stop stop-opacity="1" stop-color="rgb(53.485107%, 23.179626%, 52.896118%)" offset="0.875"/><stop stop-opacity="1" stop-color="rgb(53.591919%, 22.898865%, 52.9953%)" offset="0.878906"/><stop stop-opacity="1" stop-color="rgb(53.69873%, 22.619629%, 53.096008%)" offset="0.882812"/><stop stop-opacity="1" stop-color="rgb(53.805542%, 22.338867%, 53.19519%)" offset="0.886719"/><stop stop-opacity="1" stop-color="rgb(53.913879%, 22.058105%, 53.294373%)" offset="0.890625"/><stop stop-opacity="1" stop-color="rgb(54.020691%, 21.777344%, 53.393555%)" offset="0.894531"/><stop stop-opacity="1" stop-color="rgb(54.127502%, 21.498108%, 53.494263%)" offset="0.898438"/><stop stop-opacity="1" stop-color="rgb(54.234314%, 21.217346%, 53.593445%)" offset="0.902344"/><stop stop-opacity="1" stop-color="rgb(54.342651%, 20.936584%, 53.694153%)" offset="0.90625"/><stop stop-opacity="1" stop-color="rgb(54.449463%, 20.655823%, 53.793335%)" offset="0.910156"/><stop stop-opacity="1" stop-color="rgb(54.556274%, 20.376587%, 53.892517%)" offset="0.914062"/><stop stop-opacity="1" stop-color="rgb(54.663086%, 20.095825%, 53.991699%)" offset="0.917969"/><stop stop-opacity="1" stop-color="rgb(54.771423%, 19.816589%, 54.092407%)" offset="0.921875"/><stop stop-opacity="1" stop-color="rgb(54.878235%, 19.535828%, 54.191589%)" offset="0.925781"/><stop stop-opacity="1" stop-color="rgb(54.986572%, 19.255066%, 54.292297%)" offset="0.929688"/><stop stop-opacity="1" stop-color="rgb(55.093384%, 18.974304%, 54.391479%)" offset="0.933594"/><stop stop-opacity="1" stop-color="rgb(55.200195%, 18.695068%, 54.492188%)" offset="0.9375"/><stop stop-opacity="1" stop-color="rgb(55.307007%, 18.414307%, 54.59137%)" offset="0.941406"/><stop stop-opacity="1" stop-color="rgb(55.415344%, 18.133545%, 54.690552%)" offset="0.945312"/><stop stop-opacity="1" stop-color="rgb(55.522156%, 17.852783%, 54.789734%)" offset="0.949219"/><stop stop-opacity="1" stop-color="rgb(55.628967%, 17.573547%, 54.890442%)" offset="0.953125"/><stop stop-opacity="1" stop-color="rgb(55.735779%, 17.292786%, 54.989624%)" offset="0.957031"/><stop stop-opacity="1" stop-color="rgb(55.844116%, 17.012024%, 55.090332%)" offset="0.960937"/><stop stop-opacity="1" stop-color="rgb(55.950928%, 16.731262%, 55.189514%)" offset="0.964844"/><stop stop-opacity="1" stop-color="rgb(56.057739%, 16.452026%, 55.288696%)" offset="0.96875"/><stop stop-opacity="1" stop-color="rgb(56.164551%, 16.171265%, 55.387878%)" offset="0.972656"/><stop stop-opacity="1" stop-color="rgb(56.272888%, 15.890503%, 55.488586%)" offset="0.976562"/><stop stop-opacity="1" stop-color="rgb(56.3797%, 15.609741%, 55.587769%)" offset="0.980469"/><stop stop-opacity="1" stop-color="rgb(56.486511%, 15.330505%, 55.688477%)" offset="0.984375"/><stop stop-opacity="1" stop-color="rgb(56.492615%, 15.315247%, 55.693054%)" offset="1"/></linearGradient></defs><g clip-path="url(#964ecbd170)"><g clip-path="url(#23e1314ecf)"><path fill="url(#280e9392f0)" d="M 38.480469 0.308594 L 38.480469 149.398438 L 213.980469 149.398438 L 213.980469 0.308594 Z M 38.480469 0.308594 " fill-rule="nonzero"/></g></g><g fill="#333333" fill-opacity="1"><g transform="translate(29.102951, 204.732765)"><g><path d="M 3.832031 0 L 13.699219 0 C 13.019531 -1.890625 12.753906 -4.671875 12.753906 -7.664062 L 12.703125 -12.285156 C 12.703125 -17.21875 17.21875 -21.15625 22.257812 -21.15625 C 27.296875 -21.15625 30.5 -18.265625 30.5 -13.386719 L 30.5 -7.664062 C 30.5 -4.148438 30.128906 -2.101562 29.554688 0 L 39.371094 0 C 38.738281 -2.101562 38.425781 -4.460938 38.425781 -7.980469 L 38.425781 -15.066406 C 38.425781 -22.414062 33.753906 -26.980469 25.355469 -26.980469 C 20.050781 -26.980469 15.117188 -24.460938 13.226562 -19.160156 L 12.753906 -19.160156 L 12.753906 -28.503906 C 12.753906 -32.074219 13.070312 -34.699219 13.699219 -36.746094 L 3.832031 -36.746094 C 4.460938 -34.699219 4.777344 -32.074219 4.777344 -28.503906 L 4.777344 -8.242188 C 4.777344 -4.671875 4.460938 -2.101562 3.832031 0 Z M 3.832031 0 "/></g></g></g><g fill="#333333" fill-opacity="1"><g transform="translate(75.914712, 204.732765)"><g><path d="M -0.628906 0 L 9.660156 0 C 9.867188 -1.363281 10.761719 -3.097656 12.019531 -5.773438 L 13.542969 -8.609375 L 34.382812 -8.609375 L 35.90625 -5.828125 C 37.425781 -3.097656 38.058594 -1.417969 38.265625 0 L 48.554688 0 C 47.136719 -2.046875 45.089844 -5.40625 43.359375 -8.820312 L 33.28125 -27.976562 C 31.863281 -30.867188 30.917969 -34.382812 30.445312 -36.746094 L 17.585938 -36.746094 C 17.21875 -34.699219 16.324219 -31.390625 14.59375 -27.925781 L 4.621094 -8.820312 C 2.835938 -5.460938 0.789062 -2.046875 -0.628906 0 Z M 16.585938 -14.855469 L 21.417969 -24.199219 C 22.363281 -26.246094 22.992188 -27.925781 23.726562 -30.027344 L 24.199219 -30.027344 C 24.882812 -27.976562 25.5625 -26.195312 26.457031 -24.25 L 31.339844 -14.855469 Z M 16.585938 -14.855469 "/></g></g></g><g fill="#333333" fill-opacity="1"><g transform="translate(127.659357, 204.732765)"><g><path d="M 4.25 0 L 14.332031 0 C 13.753906 -2.046875 13.386719 -5.25 13.386719 -8.820312 L 13.386719 -27.925781 C 13.386719 -31.496094 13.753906 -34.699219 14.332031 -36.746094 L 4.25 -36.746094 C 4.828125 -34.699219 5.195312 -31.496094 5.195312 -27.925781 L 5.195312 -8.820312 C 5.195312 -5.25 4.882812 -2.046875 4.25 0 Z M 4.25 0 "/></g></g></g><g fill="#333333" fill-opacity="1"><g transform="translate(150.121589, 204.732765)"><g><path d="M 3.832031 0 L 13.648438 0 C 12.964844 -1.574219 12.652344 -3.308594 12.652344 -5.828125 L 12.652344 -11.707031 C 12.652344 -16.957031 17.898438 -20.945312 22.78125 -20.945312 C 25.195312 -20.945312 27.976562 -20.050781 29.1875 -18.898438 L 29.1875 -26.035156 C 27.976562 -26.5625 25.773438 -26.980469 23.9375 -26.980469 C 18.6875 -26.980469 14.488281 -23.777344 13.175781 -18.109375 L 12.703125 -18.109375 L 12.703125 -20.417969 C 12.703125 -22.570312 13.28125 -24.988281 14.015625 -26.246094 L 3.832031 -26.246094 C 4.410156 -24.148438 4.722656 -21.996094 4.722656 -18.425781 L 4.722656 -7.453125 C 4.722656 -3.9375 4.410156 -2.046875 3.832031 0 Z M 3.832031 0 "/></g></g></g><g fill="#333333" fill-opacity="1"><g transform="translate(184.496202, 204.732765)"><g><path d="M 21.257812 0.734375 C 26.613281 0.734375 33.019531 -0.367188 36.21875 -2.257812 L 36.0625 -7.925781 C 33.226562 -5.617188 28.136719 -4.355469 23.042969 -4.355469 C 16.273438 -4.355469 9.972656 -7.507812 9.5 -12.859375 L 9.816406 -13.125 C 13.59375 -11.285156 17.847656 -10.132812 23.148438 -10.132812 C 31.234375 -10.132812 36.746094 -12.386719 36.746094 -17.796875 C 36.746094 -22.835938 30.867188 -26.980469 20.578125 -26.980469 C 9.816406 -26.980469 2.257812 -21.3125 2.257812 -13.125 C 2.257812 -4.777344 10.027344 0.734375 21.257812 0.734375 Z M 21.050781 -13.910156 C 16.902344 -13.910156 12.703125 -14.804688 9.605469 -16.167969 C 10.550781 -19.945312 15.589844 -22.152344 20.472656 -22.152344 C 26.296875 -22.152344 29.394531 -19.945312 29.394531 -17.742188 C 29.394531 -14.90625 25.667969 -13.910156 21.050781 -13.910156 Z M 21.050781 -13.910156 "/></g></g></g></svg>