<svg xmlns="http://www.w3.org/2000/svg" xmlns:xlink="http://www.w3.org/1999/xlink" width="500" zoomAndPan="magnify" viewBox="0 0 375 374.999991" height="500" preserveAspectRatio="xMidYMid meet" version="1.0"><defs><clipPath id="4f14621c57"><path d="M 107 195 L 258 195 L 258 323.25 L 107 323.25 Z M 107 195 " clip-rule="nonzero"/></clipPath><clipPath id="a23785d1b0"><path d="M 239 147 L 368.78125 147 L 368.78125 297 L 239 297 Z M 239 147 " clip-rule="nonzero"/></clipPath></defs><path fill="#e7e8ff" d="M 100.738281 322.148438 L 291.960938 322.148438 C 328.214844 322.148438 349.214844 281.101562 327.992188 251.722656 C 315.171875 233.980469 317.195312 209.546875 332.753906 194.152344 L 339.636719 187.339844 C 368.59375 158.6875 358.027344 109.675781 319.832031 95.492188 L 184.976562 45.414062 C 163.65625 37.496094 140.597656 51.832031 138.277344 74.449219 C 136.367188 93.019531 120.125 106.769531 101.484375 105.585938 L 92.296875 105.003906 C 66.753906 103.386719 45.144531 123.65625 45.144531 149.238281 L 45.144531 167.246094 C 45.144531 181.34375 40.167969 195.148438 31.253906 206.074219 C 9.148438 233.175781 12.960938 273.472656 40.15625 295.46875 L 51.695312 304.800781 C 65.574219 316.023438 82.886719 322.148438 100.738281 322.148438 Z M 100.738281 322.148438 " fill-opacity="1" fill-rule="nonzero"/><path fill="#0f5f6e" d="M 289.054688 280.582031 C 277.597656 279.824219 267.410156 308.292969 264.226562 322.148438 L 271.867188 322.148438 C 282.054688 308.921875 300.515625 281.335938 289.054688 280.582031 Z M 289.054688 280.582031 " fill-opacity="1" fill-rule="nonzero"/><path fill="#ffffff" d="M 286.191406 238.539062 C 266.710938 236.652344 257.703125 292.863281 255.636719 321.203125 L 269.480469 321.203125 C 283.167969 294.4375 305.671875 240.429688 286.191406 238.539062 Z M 286.191406 238.539062 " fill-opacity="1" fill-rule="nonzero"/><path fill="#0f5f6e" d="M 256.488281 320.421875 L 268.992188 320.421875 C 275.796875 307.058594 284.679688 287.164062 289.511719 270.328125 C 291.957031 261.808594 293.339844 254.152344 292.933594 248.546875 C 292.730469 245.746094 292.085938 243.535156 290.980469 241.988281 C 289.898438 240.476562 288.332031 239.535156 286.113281 239.320312 C 281.695312 238.890625 277.71875 241.734375 274.152344 247.105469 C 270.601562 252.453125 267.613281 260.09375 265.144531 268.746094 C 260.316406 285.699219 257.566406 306.292969 256.488281 320.421875 Z M 272.828125 246.242188 C 276.492188 240.722656 280.949219 237.246094 286.269531 237.761719 C 288.917969 238.019531 290.914062 239.179688 292.273438 241.085938 C 293.613281 242.957031 294.300781 245.488281 294.511719 248.433594 C 294.9375 254.324219 293.492188 262.195312 291.035156 270.757812 C 286.113281 287.910156 277.042969 308.152344 270.1875 321.558594 L 269.96875 321.988281 L 254.785156 321.988281 L 254.84375 321.148438 C 255.882812 306.949219 258.65625 285.75 263.621094 268.324219 C 266.101562 259.617188 269.144531 251.789062 272.828125 246.242188 Z M 272.828125 246.242188 " fill-opacity="1" fill-rule="evenodd"/><path fill="#0f5f6e" d="M 284.085938 250.566406 L 275.03125 281.828125 L 282.980469 277.988281 L 283.671875 279.394531 L 274.441406 283.855469 L 263.558594 321.421875 L 262.035156 320.988281 L 267.457031 302.269531 L 263.953125 291.6875 L 265.457031 291.203125 L 268.238281 299.585938 L 277.421875 267.878906 L 273.046875 257.742188 L 274.503906 257.128906 L 278.113281 265.492188 L 282.566406 250.132812 Z M 284.085938 250.566406 " fill-opacity="1" fill-rule="evenodd"/><path fill="#ffffff" d="M 131.945312 103.9375 C 131.945312 118.285156 120.328125 129.917969 105.992188 129.917969 C 101.042969 129.917969 96.417969 128.53125 92.480469 126.125 L 84.753906 128.867188 C 83.464844 129.324219 82.171875 128.183594 82.46875 126.84375 L 84.355469 118.289062 C 81.628906 114.175781 80.039062 109.242188 80.039062 103.9375 C 80.039062 89.585938 91.660156 77.953125 105.992188 77.953125 C 120.328125 77.953125 131.945312 89.585938 131.945312 103.9375 Z M 131.945312 103.9375 " fill-opacity="1" fill-rule="nonzero"/><path fill="#0f5f6e" d="M 105.992188 78.535156 C 120.007812 78.535156 131.367188 89.90625 131.367188 103.9375 C 131.367188 117.964844 120.007812 129.335938 105.992188 129.335938 C 101.152344 129.335938 96.628906 127.980469 92.785156 125.625 L 92.546875 125.480469 L 84.558594 128.316406 C 83.699219 128.625 82.839844 127.863281 83.035156 126.96875 L 84.976562 118.171875 L 84.839844 117.964844 C 82.171875 113.945312 80.621094 109.125 80.621094 103.9375 C 80.621094 89.90625 91.980469 78.535156 105.992188 78.535156 Z M 132.527344 103.9375 C 132.527344 89.265625 120.648438 77.371094 105.992188 77.371094 C 91.339844 77.371094 79.457031 89.265625 79.457031 103.9375 C 79.457031 109.269531 81.027344 114.238281 83.734375 118.402344 L 81.902344 126.71875 C 81.507812 128.503906 83.226562 130.027344 84.949219 129.414062 L 92.414062 126.765625 C 96.386719 129.136719 101.03125 130.5 105.992188 130.5 C 120.648438 130.5 132.527344 118.605469 132.527344 103.9375 Z M 132.527344 103.9375 " fill-opacity="1" fill-rule="evenodd"/><path fill="#647496" d="M 105.871094 103.246094 C 113.121094 103.246094 119.101562 108.777344 119.949219 115.914062 C 120.0625 116.871094 119.269531 117.65625 118.308594 117.65625 L 93.429688 117.65625 C 92.46875 117.65625 91.675781 116.871094 91.789062 115.914062 C 92.636719 108.777344 98.617188 103.246094 105.871094 103.246094 Z M 105.871094 103.246094 " fill-opacity="1" fill-rule="nonzero"/><path fill="#647496" d="M 99.183594 94.808594 C 99.183594 98.554688 102.21875 101.59375 105.957031 101.59375 C 109.699219 101.59375 112.730469 98.554688 112.730469 94.808594 C 112.730469 91.066406 109.699219 88.027344 105.957031 88.027344 C 102.21875 88.027344 99.183594 91.066406 99.183594 94.808594 Z M 99.183594 94.808594 " fill-opacity="1" fill-rule="nonzero"/><path fill="#ffffff" d="M 217.109375 87.253906 L 216.917969 81.75 C 216.882812 80.769531 218.128906 80.324219 218.722656 81.101562 L 222 85.363281 C 222.199219 85.621094 222.507812 85.765625 222.832031 85.753906 L 228.710938 85.550781 C 229.65625 85.519531 230.121094 86.691406 229.410156 87.316406 L 224.945312 91.242188 C 224.726562 91.433594 224.601562 91.707031 224.601562 92 L 224.582031 98.535156 C 224.582031 99.503906 223.34375 99.910156 222.765625 99.132812 L 219.121094 94.210938 C 218.941406 93.972656 218.667969 93.820312 218.371094 93.804688 L 211.722656 93.410156 C 210.746094 93.355469 210.417969 92.074219 211.246094 91.550781 L 216.640625 88.144531 C 216.941406 87.953125 217.121094 87.613281 217.109375 87.253906 Z M 217.109375 87.253906 " fill-opacity="1" fill-rule="nonzero"/><path fill="#ffffff" d="M 279.410156 114.25 L 280.117188 112.621094 C 280.507812 111.71875 281.820312 111.851562 282.027344 112.808594 L 282.390625 114.496094 C 282.457031 114.8125 282.675781 115.082031 282.972656 115.210938 L 284.949219 116.070312 C 285.820312 116.445312 285.734375 117.703125 284.824219 117.964844 L 282.691406 118.570312 C 282.414062 118.648438 282.183594 118.84375 282.058594 119.105469 L 280.984375 121.34375 C 280.566406 122.21875 279.277344 122.054688 279.089844 121.101562 L 278.65625 118.910156 C 278.601562 118.617188 278.414062 118.367188 278.15625 118.222656 L 275.953125 117.007812 C 275.097656 116.539062 275.347656 115.242188 276.320312 115.125 L 278.605469 114.851562 C 278.960938 114.808594 279.269531 114.578125 279.410156 114.25 Z M 279.410156 114.25 " fill-opacity="1" fill-rule="nonzero"/><path fill="#0f5f6e" d="M 182.757812 109.628906 C 153.042969 109.628906 128.953125 133.753906 128.953125 163.515625 L 128.953125 204.992188 C 128.953125 206.835938 130.445312 208.335938 132.292969 208.335938 L 141.703125 208.335938 C 143.550781 208.335938 145.042969 206.835938 145.042969 204.992188 L 145.042969 162.507812 C 145.042969 141.648438 161.929688 124.738281 182.757812 124.738281 C 203.585938 124.738281 220.472656 141.648438 220.472656 162.507812 L 220.472656 173.765625 C 220.472656 175.613281 221.96875 177.109375 223.8125 177.109375 L 233.226562 177.109375 C 235.070312 177.109375 236.566406 175.613281 236.566406 173.765625 L 236.566406 163.515625 C 236.566406 133.753906 212.476562 109.628906 182.757812 109.628906 Z M 182.757812 109.628906 " fill-opacity="1" fill-rule="evenodd"/><path fill="#ffffff" d="M 108.835938 199.59375 C 108.835938 197.746094 110.332031 196.25 112.175781 196.25 L 253.339844 196.25 C 255.183594 196.25 256.679688 197.746094 256.679688 199.59375 L 256.679688 318.804688 C 256.679688 320.652344 255.183594 322.148438 253.339844 322.148438 L 112.175781 322.148438 C 110.332031 322.148438 108.835938 320.652344 108.835938 318.804688 Z M 108.835938 199.59375 " fill-opacity="1" fill-rule="nonzero"/><g clip-path="url(#4f14621c57)"><path fill="#0f5f6e" d="M 107.722656 199.59375 C 107.722656 197.128906 109.71875 195.132812 112.175781 195.132812 L 253.339844 195.132812 C 255.800781 195.132812 257.792969 197.128906 257.792969 199.59375 L 257.792969 318.804688 C 257.792969 321.265625 255.800781 323.261719 253.339844 323.261719 L 112.175781 323.261719 C 109.71875 323.261719 107.722656 321.265625 107.722656 318.804688 Z M 112.175781 197.363281 C 110.945312 197.363281 109.949219 198.359375 109.949219 199.59375 L 109.949219 318.804688 C 109.949219 320.035156 110.945312 321.035156 112.175781 321.035156 L 253.339844 321.035156 C 254.570312 321.035156 255.566406 320.035156 255.566406 318.804688 L 255.566406 199.59375 C 255.566406 198.359375 254.570312 197.363281 253.339844 197.363281 Z M 112.175781 197.363281 " fill-opacity="1" fill-rule="evenodd"/></g><path fill="#647496" d="M 191.265625 262.746094 C 194.355469 260.253906 196.335938 256.433594 196.335938 252.148438 C 196.335938 244.636719 190.257812 238.550781 182.757812 238.550781 C 175.261719 238.550781 169.179688 244.636719 169.179688 252.148438 C 169.179688 256.816406 171.527344 260.933594 175.105469 263.382812 L 172.078125 276.125 C 171.625 278.023438 173.0625 279.847656 175.011719 279.847656 L 191.511719 279.847656 C 193.457031 279.847656 194.894531 278.023438 194.445312 276.125 Z M 191.265625 262.746094 " fill-opacity="1" fill-rule="evenodd"/><path fill="#ffffff" d="M 132.863281 104.410156 C 132.863281 119.527344 120.621094 131.785156 105.519531 131.785156 C 100.304688 131.785156 95.429688 130.324219 91.28125 127.785156 L 83.140625 130.675781 C 81.78125 131.160156 80.421875 129.957031 80.734375 128.546875 L 82.71875 119.53125 C 79.847656 115.199219 78.175781 110 78.175781 104.410156 C 78.175781 89.292969 90.417969 77.035156 105.519531 77.035156 C 120.621094 77.035156 132.863281 89.292969 132.863281 104.410156 Z M 132.863281 104.410156 " fill-opacity="1" fill-rule="nonzero"/><path fill="#0f5f6e" d="M 105.519531 77.648438 C 120.285156 77.648438 132.25 89.628906 132.25 104.410156 C 132.25 119.191406 120.285156 131.171875 105.519531 131.171875 C 100.417969 131.171875 95.65625 129.742188 91.601562 127.261719 L 91.351562 127.109375 L 82.9375 130.097656 C 82.03125 130.421875 81.125 129.617188 81.332031 128.679688 L 83.375 119.410156 L 83.230469 119.191406 C 80.421875 114.957031 78.789062 109.875 78.789062 104.410156 C 78.789062 89.628906 90.753906 77.648438 105.519531 77.648438 Z M 133.476562 104.410156 C 133.476562 88.953125 120.960938 76.421875 105.519531 76.421875 C 90.078125 76.421875 77.5625 88.953125 77.5625 104.410156 C 77.5625 110.03125 79.21875 115.265625 82.066406 119.652344 L 80.136719 128.414062 C 79.722656 130.292969 81.535156 131.898438 83.347656 131.253906 L 91.214844 128.460938 C 95.398438 130.960938 100.292969 132.398438 105.519531 132.398438 C 120.960938 132.398438 133.476562 119.867188 133.476562 104.410156 Z M 133.476562 104.410156 " fill-opacity="1" fill-rule="evenodd"/><path fill="#647496" d="M 105.390625 103.683594 C 113.027344 103.683594 119.332031 109.511719 120.222656 117.027344 C 120.34375 118.039062 119.507812 118.863281 118.492188 118.863281 L 92.285156 118.863281 C 91.269531 118.863281 90.433594 118.039062 90.554688 117.027344 C 91.445312 109.511719 97.75 103.683594 105.390625 103.683594 Z M 105.390625 103.683594 " fill-opacity="1" fill-rule="nonzero"/><path fill="#647496" d="M 98.34375 94.796875 C 98.34375 98.742188 101.539062 101.941406 105.484375 101.941406 C 109.421875 101.941406 112.617188 98.742188 112.617188 94.796875 C 112.617188 90.851562 109.421875 87.652344 105.484375 87.652344 C 101.539062 87.652344 98.34375 90.851562 98.34375 94.796875 Z M 98.34375 94.796875 " fill-opacity="1" fill-rule="nonzero"/><path fill="#ffffff" d="M 250.34375 156.117188 L 360.824219 156.117188 C 361.113281 156.117188 361.394531 156.171875 361.664062 156.285156 C 361.933594 156.394531 362.167969 156.554688 362.375 156.761719 C 362.582031 156.96875 362.738281 157.203125 362.851562 157.472656 C 362.960938 157.742188 363.019531 158.023438 363.019531 158.316406 L 363.019531 286.308594 C 363.019531 286.601562 362.960938 286.878906 362.851562 287.148438 C 362.738281 287.417969 362.582031 287.65625 362.375 287.863281 C 362.167969 288.070312 361.933594 288.226562 361.664062 288.339844 C 361.394531 288.449219 361.113281 288.507812 360.824219 288.507812 L 250.34375 288.507812 C 250.054688 288.507812 249.773438 288.449219 249.503906 288.339844 C 249.234375 288.226562 249 288.070312 248.792969 287.863281 C 248.585938 287.65625 248.429688 287.417969 248.316406 287.148438 C 248.207031 286.878906 248.148438 286.601562 248.148438 286.308594 L 248.148438 158.316406 C 248.148438 158.023438 248.207031 157.742188 248.316406 157.472656 C 248.429688 157.203125 248.585938 156.96875 248.792969 156.761719 C 249 156.554688 249.234375 156.394531 249.503906 156.285156 C 249.773438 156.171875 250.054688 156.117188 250.34375 156.117188 Z M 250.34375 156.117188 " fill-opacity="1" fill-rule="nonzero"/><g clip-path="url(#a23785d1b0)"><path stroke-linecap="butt" transform="matrix(0.731695, 0, 0, 0.732504, 0.0965382, -19.488851)" fill="none" stroke-linejoin="miter" d="M 342.010332 239.733748 L 493.002871 239.733748 C 493.39793 239.733748 493.782312 239.808406 494.150677 239.963056 C 494.519043 240.112372 494.839361 240.331014 495.122308 240.613649 C 495.405256 240.896284 495.618801 241.216248 495.773621 241.584206 C 495.923103 241.952165 496.003183 242.336121 496.003183 242.736076 L 496.003183 417.468375 C 496.003183 417.86833 495.923103 418.246954 495.773621 418.614912 C 495.618801 418.982871 495.405256 419.308168 495.122308 419.590802 C 494.839361 419.873437 494.519043 420.086747 494.150677 420.241396 C 493.782312 420.390712 493.39793 420.470703 493.002871 420.470703 L 342.010332 420.470703 C 341.615274 420.470703 341.230892 420.390712 340.862526 420.241396 C 340.494161 420.086747 340.173843 419.873437 339.890895 419.590802 C 339.607948 419.308168 339.394403 418.982871 339.239582 418.614912 C 339.090101 418.246954 339.010021 417.86833 339.010021 417.468375 L 339.010021 242.736076 C 339.010021 242.336121 339.090101 241.952165 339.239582 241.584206 C 339.394403 241.216248 339.607948 240.896284 339.890895 240.613649 C 340.173843 240.331014 340.494161 240.112372 340.862526 239.963056 C 341.230892 239.808406 341.615274 239.733748 342.010332 239.733748 Z M 342.010332 239.733748 " stroke="#032068" stroke-width="2" stroke-opacity="1" stroke-miterlimit="4"/></g><path stroke-linecap="butt" transform="matrix(0.731695, 0, 0, 0.732504, 0.0965382, -19.488851)" fill="none" stroke-linejoin="miter" d="M 368.393853 284.587357 L 467.932654 284.587357 C 468.333051 284.587357 468.717433 284.662016 469.08046 284.816665 C 469.448825 284.965981 469.774482 285.184623 470.057429 285.467258 C 470.335038 285.749893 470.553922 286.069857 470.708742 286.437816 C 470.858224 286.805774 470.932965 287.189731 470.932965 287.589686 L 470.932965 305.331685 C 470.932965 305.73164 470.858224 306.115597 470.708742 306.483555 C 470.553922 306.851514 470.335038 307.171478 470.057429 307.454113 C 469.774482 307.736747 469.448825 307.955389 469.08046 308.104706 C 468.717433 308.259355 468.333051 308.334013 467.932654 308.334013 L 368.393853 308.334013 C 367.998795 308.334013 367.614413 308.259355 367.246048 308.104706 C 366.883021 307.955389 366.557364 307.736747 366.274416 307.454113 C 365.991469 307.171478 365.777924 306.851514 365.623103 306.483555 C 365.473622 306.115597 365.393542 305.73164 365.393542 305.331685 L 365.393542 287.589686 C 365.393542 287.189731 365.473622 286.805774 365.623103 286.437816 C 365.777924 286.069857 365.991469 285.749893 366.274416 285.467258 C 366.557364 285.184623 366.883021 284.965981 367.246048 284.816665 C 367.614413 284.662016 367.998795 284.587357 368.393853 284.587357 Z M 368.393853 284.587357 " stroke="#e7e8ff" stroke-width="2" stroke-opacity="1" stroke-miterlimit="4"/><path stroke-linecap="butt" transform="matrix(0.731695, 0, 0, 0.732504, 0.0965382, -19.488851)" fill="none" stroke-linejoin="miter" d="M 368.393853 333.397854 L 467.932654 333.397854 C 468.333051 333.397854 468.717433 333.477845 469.08046 333.627162 C 469.448825 333.781811 469.774482 333.99512 470.057429 334.277755 C 470.335038 334.56039 470.553922 334.885686 470.708742 335.253645 C 470.858224 335.621603 470.932965 336.000227 470.932965 336.400182 L 470.932965 354.147515 C 470.932965 354.542137 470.858224 354.926093 470.708742 355.294052 C 470.553922 355.66201 470.335038 355.987307 470.057429 356.264609 C 469.774482 356.547244 469.448825 356.765886 469.08046 356.915202 C 468.717433 357.069852 468.333051 357.14451 467.932654 357.14451 L 368.393853 357.14451 C 367.998795 357.14451 367.614413 357.069852 367.246048 356.915202 C 366.883021 356.765886 366.557364 356.547244 366.274416 356.264609 C 365.991469 355.987307 365.777924 355.66201 365.623103 355.294052 C 365.473622 354.926093 365.393542 354.542137 365.393542 354.147515 L 365.393542 336.400182 C 365.393542 336.000227 365.473622 335.621603 365.623103 335.253645 C 365.777924 334.885686 365.991469 334.56039 366.274416 334.277755 C 366.557364 333.99512 366.883021 333.781811 367.246048 333.627162 C 367.614413 333.477845 367.998795 333.397854 368.393853 333.397854 Z M 368.393853 333.397854 " stroke="#e7e8ff" stroke-width="2" stroke-opacity="1" stroke-miterlimit="4"/><path fill="#0f5f6e" d="M 287.992188 255.652344 L 324.144531 255.652344 C 324.433594 255.652344 324.714844 255.707031 324.984375 255.816406 C 325.253906 255.929688 325.492188 256.089844 325.695312 256.292969 C 325.902344 256.5 326.0625 256.738281 326.171875 257.007812 C 326.285156 257.277344 326.339844 257.558594 326.339844 257.847656 L 326.339844 268.914062 C 326.339844 269.207031 326.285156 269.488281 326.171875 269.757812 C 326.0625 270.023438 325.902344 270.261719 325.695312 270.46875 C 325.492188 270.675781 325.253906 270.832031 324.984375 270.945312 C 324.714844 271.058594 324.433594 271.113281 324.144531 271.113281 L 287.992188 271.113281 C 287.703125 271.113281 287.421875 271.058594 287.152344 270.945312 C 286.882812 270.832031 286.648438 270.675781 286.441406 270.46875 C 286.234375 270.261719 286.078125 270.023438 285.964844 269.757812 C 285.851562 269.488281 285.796875 269.207031 285.796875 268.914062 L 285.796875 257.847656 C 285.796875 257.558594 285.851562 257.277344 285.964844 257.007812 C 286.078125 256.738281 286.234375 256.5 286.441406 256.292969 C 286.648438 256.089844 286.882812 255.929688 287.152344 255.816406 C 287.421875 255.707031 287.703125 255.652344 287.992188 255.652344 Z M 287.992188 255.652344 " fill-opacity="1" fill-rule="nonzero"/><path fill="#0f5f6e" d="M 293.515625 172.546875 L 318.613281 172.546875 C 318.871094 172.546875 319.117188 172.59375 319.355469 172.691406 C 319.589844 172.789062 319.800781 172.929688 319.980469 173.109375 C 320.160156 173.292969 320.300781 173.5 320.398438 173.738281 C 320.496094 173.976562 320.546875 174.222656 320.546875 174.476562 C 320.546875 174.734375 320.496094 174.980469 320.398438 175.21875 C 320.300781 175.453125 320.160156 175.664062 319.980469 175.84375 C 319.800781 176.027344 319.589844 176.164062 319.355469 176.261719 C 319.117188 176.363281 318.871094 176.410156 318.613281 176.410156 L 293.515625 176.410156 C 293.261719 176.410156 293.015625 176.363281 292.777344 176.261719 C 292.542969 176.164062 292.332031 176.027344 292.152344 175.84375 C 291.972656 175.664062 291.832031 175.453125 291.734375 175.21875 C 291.636719 174.980469 291.585938 174.734375 291.585938 174.476562 C 291.585938 174.222656 291.636719 173.976562 291.734375 173.738281 C 291.832031 173.5 291.972656 173.292969 292.152344 173.109375 C 292.332031 172.929688 292.542969 172.789062 292.777344 172.691406 C 293.015625 172.59375 293.261719 172.546875 293.515625 172.546875 Z M 293.515625 172.546875 " fill-opacity="1" fill-rule="nonzero"/><path fill="#647496" d="M 279.039062 233.90625 C 279.039062 234.226562 278.980469 234.535156 278.855469 234.832031 C 278.734375 235.128906 278.558594 235.390625 278.332031 235.617188 C 278.105469 235.84375 277.847656 236.015625 277.550781 236.140625 C 277.253906 236.261719 276.945312 236.324219 276.625 236.324219 C 276.308594 236.324219 276 236.261719 275.703125 236.140625 C 275.40625 236.015625 275.148438 235.84375 274.921875 235.617188 C 274.695312 235.390625 274.519531 235.128906 274.398438 234.832031 C 274.273438 234.535156 274.214844 234.226562 274.214844 233.90625 C 274.214844 233.585938 274.273438 233.28125 274.398438 232.984375 C 274.519531 232.6875 274.695312 232.425781 274.921875 232.199219 C 275.148438 231.972656 275.40625 231.796875 275.703125 231.675781 C 276 231.554688 276.308594 231.492188 276.625 231.492188 C 276.945312 231.492188 277.253906 231.554688 277.550781 231.675781 C 277.847656 231.796875 278.105469 231.972656 278.332031 232.199219 C 278.558594 232.425781 278.734375 232.6875 278.855469 232.984375 C 278.980469 233.28125 279.039062 233.585938 279.039062 233.90625 Z M 279.039062 233.90625 " fill-opacity="1" fill-rule="nonzero"/><path fill="#647496" d="M 290.625 233.90625 C 290.625 234.226562 290.5625 234.535156 290.441406 234.832031 C 290.316406 235.128906 290.144531 235.390625 289.917969 235.617188 C 289.691406 235.84375 289.429688 236.015625 289.132812 236.140625 C 288.839844 236.261719 288.53125 236.324219 288.210938 236.324219 C 287.890625 236.324219 287.582031 236.261719 287.289062 236.140625 C 286.992188 236.015625 286.730469 235.84375 286.503906 235.617188 C 286.277344 235.390625 286.105469 235.128906 285.980469 234.832031 C 285.859375 234.535156 285.796875 234.226562 285.796875 233.90625 C 285.796875 233.585938 285.859375 233.28125 285.980469 232.984375 C 286.105469 232.6875 286.277344 232.425781 286.503906 232.199219 C 286.730469 231.972656 286.992188 231.796875 287.289062 231.675781 C 287.582031 231.554688 287.890625 231.492188 288.210938 231.492188 C 288.53125 231.492188 288.839844 231.554688 289.132812 231.675781 C 289.429688 231.796875 289.691406 231.972656 289.917969 232.199219 C 290.144531 232.425781 290.316406 232.6875 290.441406 232.984375 C 290.5625 233.28125 290.625 233.585938 290.625 233.90625 Z M 290.625 233.90625 " fill-opacity="1" fill-rule="nonzero"/><path fill="#647496" d="M 302.203125 233.90625 C 302.203125 234.226562 302.144531 234.535156 302.019531 234.832031 C 301.898438 235.128906 301.722656 235.390625 301.496094 235.617188 C 301.269531 235.84375 301.011719 236.015625 300.714844 236.140625 C 300.417969 236.261719 300.109375 236.324219 299.789062 236.324219 C 299.46875 236.324219 299.164062 236.261719 298.867188 236.140625 C 298.570312 236.015625 298.3125 235.84375 298.085938 235.617188 C 297.859375 235.390625 297.683594 235.128906 297.5625 234.832031 C 297.4375 234.535156 297.378906 234.226562 297.378906 233.90625 C 297.378906 233.585938 297.4375 233.28125 297.5625 232.984375 C 297.683594 232.6875 297.859375 232.425781 298.085938 232.199219 C 298.3125 231.972656 298.570312 231.796875 298.867188 231.675781 C 299.164062 231.554688 299.46875 231.492188 299.789062 231.492188 C 300.109375 231.492188 300.417969 231.554688 300.714844 231.675781 C 301.011719 231.796875 301.269531 231.972656 301.496094 232.199219 C 301.722656 232.425781 301.898438 232.6875 302.019531 232.984375 C 302.144531 233.28125 302.203125 233.585938 302.203125 233.90625 Z M 302.203125 233.90625 " fill-opacity="1" fill-rule="nonzero"/><path fill="#647496" d="M 313.785156 233.90625 C 313.785156 234.226562 313.726562 234.535156 313.601562 234.832031 C 313.480469 235.128906 313.304688 235.390625 313.078125 235.617188 C 312.851562 235.84375 312.59375 236.015625 312.296875 236.140625 C 312 236.261719 311.695312 236.324219 311.375 236.324219 C 311.054688 236.324219 310.746094 236.261719 310.449219 236.140625 C 310.152344 236.015625 309.894531 235.84375 309.667969 235.617188 C 309.441406 235.390625 309.265625 235.128906 309.144531 234.832031 C 309.023438 234.535156 308.960938 234.226562 308.960938 233.90625 C 308.960938 233.585938 309.023438 233.28125 309.144531 232.984375 C 309.265625 232.6875 309.441406 232.425781 309.667969 232.199219 C 309.894531 231.972656 310.152344 231.796875 310.449219 231.675781 C 310.746094 231.554688 311.054688 231.492188 311.375 231.492188 C 311.695312 231.492188 312 231.554688 312.296875 231.675781 C 312.59375 231.796875 312.851562 231.972656 313.078125 232.199219 C 313.304688 232.425781 313.480469 232.6875 313.601562 232.984375 C 313.726562 233.28125 313.785156 233.585938 313.785156 233.90625 Z M 313.785156 233.90625 " fill-opacity="1" fill-rule="nonzero"/><path fill="#647496" d="M 325.371094 233.90625 C 325.371094 234.226562 325.308594 234.535156 325.1875 234.832031 C 325.066406 235.128906 324.890625 235.390625 324.664062 235.617188 C 324.4375 235.84375 324.175781 236.015625 323.882812 236.140625 C 323.585938 236.261719 323.277344 236.324219 322.957031 236.324219 C 322.636719 236.324219 322.328125 236.261719 322.035156 236.140625 C 321.738281 236.015625 321.476562 235.84375 321.25 235.617188 C 321.023438 235.390625 320.851562 235.128906 320.726562 234.832031 C 320.605469 234.535156 320.542969 234.226562 320.542969 233.90625 C 320.542969 233.585938 320.605469 233.28125 320.726562 232.984375 C 320.851562 232.6875 321.023438 232.425781 321.25 232.199219 C 321.476562 231.972656 321.738281 231.796875 322.035156 231.675781 C 322.328125 231.554688 322.636719 231.492188 322.957031 231.492188 C 323.277344 231.492188 323.585938 231.554688 323.882812 231.675781 C 324.175781 231.796875 324.4375 231.972656 324.664062 232.199219 C 324.890625 232.425781 325.066406 232.6875 325.1875 232.984375 C 325.308594 233.28125 325.371094 233.585938 325.371094 233.90625 Z M 325.371094 233.90625 " fill-opacity="1" fill-rule="nonzero"/><path fill="#647496" d="M 279.035156 198.152344 C 279.035156 198.472656 278.972656 198.78125 278.851562 199.078125 C 278.726562 199.375 278.554688 199.636719 278.328125 199.863281 C 278.101562 200.089844 277.839844 200.261719 277.542969 200.386719 C 277.25 200.507812 276.941406 200.570312 276.621094 200.570312 C 276.300781 200.570312 275.992188 200.507812 275.699219 200.386719 C 275.402344 200.261719 275.140625 200.089844 274.914062 199.863281 C 274.6875 199.636719 274.515625 199.375 274.390625 199.078125 C 274.269531 198.78125 274.207031 198.472656 274.207031 198.152344 C 274.207031 197.832031 274.269531 197.523438 274.390625 197.230469 C 274.515625 196.933594 274.6875 196.671875 274.914062 196.445312 C 275.140625 196.21875 275.402344 196.042969 275.699219 195.921875 C 275.992188 195.800781 276.300781 195.738281 276.621094 195.738281 C 276.941406 195.738281 277.25 195.800781 277.542969 195.921875 C 277.839844 196.042969 278.101562 196.21875 278.328125 196.445312 C 278.554688 196.671875 278.726562 196.933594 278.851562 197.230469 C 278.972656 197.523438 279.035156 197.832031 279.035156 198.152344 Z M 279.035156 198.152344 " fill-opacity="1" fill-rule="nonzero"/><path fill="#647496" d="M 290.617188 198.152344 C 290.617188 198.472656 290.558594 198.78125 290.433594 199.078125 C 290.3125 199.375 290.136719 199.636719 289.910156 199.863281 C 289.683594 200.089844 289.425781 200.261719 289.128906 200.386719 C 288.832031 200.507812 288.523438 200.570312 288.203125 200.570312 C 287.886719 200.570312 287.578125 200.507812 287.28125 200.386719 C 286.984375 200.261719 286.726562 200.089844 286.5 199.863281 C 286.273438 199.636719 286.097656 199.375 285.976562 199.078125 C 285.851562 198.78125 285.792969 198.472656 285.792969 198.152344 C 285.792969 197.832031 285.851562 197.523438 285.976562 197.230469 C 286.097656 196.933594 286.273438 196.671875 286.5 196.445312 C 286.726562 196.21875 286.984375 196.042969 287.28125 195.921875 C 287.578125 195.800781 287.886719 195.738281 288.203125 195.738281 C 288.523438 195.738281 288.832031 195.800781 289.128906 195.921875 C 289.425781 196.042969 289.683594 196.21875 289.910156 196.445312 C 290.136719 196.671875 290.3125 196.933594 290.433594 197.230469 C 290.558594 197.523438 290.617188 197.832031 290.617188 198.152344 Z M 290.617188 198.152344 " fill-opacity="1" fill-rule="nonzero"/><path fill="#647496" d="M 302.199219 198.152344 C 302.199219 198.472656 302.140625 198.78125 302.015625 199.078125 C 301.894531 199.375 301.71875 199.636719 301.492188 199.863281 C 301.269531 200.089844 301.007812 200.261719 300.710938 200.386719 C 300.414062 200.507812 300.109375 200.570312 299.789062 200.570312 C 299.46875 200.570312 299.160156 200.507812 298.863281 200.386719 C 298.570312 200.261719 298.308594 200.089844 298.082031 199.863281 C 297.855469 199.636719 297.679688 199.375 297.558594 199.078125 C 297.4375 198.78125 297.375 198.472656 297.375 198.152344 C 297.375 197.832031 297.4375 197.523438 297.558594 197.230469 C 297.679688 196.933594 297.855469 196.671875 298.082031 196.445312 C 298.308594 196.21875 298.570312 196.042969 298.863281 195.921875 C 299.160156 195.800781 299.46875 195.738281 299.789062 195.738281 C 300.109375 195.738281 300.414062 195.800781 300.710938 195.921875 C 301.007812 196.042969 301.269531 196.21875 301.492188 196.445312 C 301.71875 196.671875 301.894531 196.933594 302.015625 197.230469 C 302.140625 197.523438 302.199219 197.832031 302.199219 198.152344 Z M 302.199219 198.152344 " fill-opacity="1" fill-rule="nonzero"/><path fill="#647496" d="M 313.785156 198.152344 C 313.785156 198.472656 313.722656 198.78125 313.601562 199.078125 C 313.480469 199.375 313.304688 199.636719 313.078125 199.863281 C 312.851562 200.089844 312.589844 200.261719 312.296875 200.386719 C 312 200.507812 311.691406 200.570312 311.371094 200.570312 C 311.050781 200.570312 310.742188 200.507812 310.449219 200.386719 C 310.152344 200.261719 309.890625 200.089844 309.664062 199.863281 C 309.4375 199.636719 309.265625 199.375 309.140625 199.078125 C 309.019531 198.78125 308.957031 198.472656 308.957031 198.152344 C 308.957031 197.832031 309.019531 197.523438 309.140625 197.230469 C 309.265625 196.933594 309.4375 196.671875 309.664062 196.445312 C 309.890625 196.21875 310.152344 196.042969 310.449219 195.921875 C 310.742188 195.800781 311.050781 195.738281 311.371094 195.738281 C 311.691406 195.738281 312 195.800781 312.296875 195.921875 C 312.589844 196.042969 312.851562 196.21875 313.078125 196.445312 C 313.304688 196.671875 313.480469 196.933594 313.601562 197.230469 C 313.722656 197.523438 313.785156 197.832031 313.785156 198.152344 Z M 313.785156 198.152344 " fill-opacity="1" fill-rule="nonzero"/><path fill="#647496" d="M 325.367188 198.152344 C 325.367188 198.472656 325.304688 198.78125 325.183594 199.078125 C 325.0625 199.375 324.886719 199.636719 324.660156 199.863281 C 324.433594 200.089844 324.171875 200.261719 323.878906 200.386719 C 323.582031 200.507812 323.273438 200.570312 322.953125 200.570312 C 322.632812 200.570312 322.328125 200.507812 322.03125 200.386719 C 321.734375 200.261719 321.472656 200.089844 321.25 199.863281 C 321.023438 199.636719 320.847656 199.375 320.726562 199.078125 C 320.601562 198.78125 320.542969 198.472656 320.542969 198.152344 C 320.542969 197.832031 320.601562 197.523438 320.726562 197.230469 C 320.847656 196.933594 321.023438 196.671875 321.25 196.445312 C 321.472656 196.21875 321.734375 196.042969 322.03125 195.921875 C 322.328125 195.800781 322.632812 195.738281 322.953125 195.738281 C 323.273438 195.738281 323.582031 195.800781 323.878906 195.921875 C 324.171875 196.042969 324.433594 196.21875 324.660156 196.445312 C 324.886719 196.671875 325.0625 196.933594 325.183594 197.230469 C 325.304688 197.523438 325.367188 197.832031 325.367188 198.152344 Z M 325.367188 198.152344 " fill-opacity="1" fill-rule="nonzero"/><path fill="#647496" d="M 336.953125 198.152344 C 336.953125 198.472656 336.890625 198.78125 336.769531 199.078125 C 336.644531 199.375 336.472656 199.636719 336.246094 199.863281 C 336.019531 200.089844 335.757812 200.261719 335.460938 200.386719 C 335.167969 200.507812 334.859375 200.570312 334.539062 200.570312 C 334.21875 200.570312 333.910156 200.507812 333.617188 200.386719 C 333.320312 200.261719 333.058594 200.089844 332.832031 199.863281 C 332.605469 199.636719 332.433594 199.375 332.308594 199.078125 C 332.1875 198.78125 332.125 198.472656 332.125 198.152344 C 332.125 197.832031 332.1875 197.523438 332.308594 197.230469 C 332.433594 196.933594 332.605469 196.671875 332.832031 196.445312 C 333.058594 196.21875 333.320312 196.042969 333.617188 195.921875 C 333.910156 195.800781 334.21875 195.738281 334.539062 195.738281 C 334.859375 195.738281 335.167969 195.800781 335.460938 195.921875 C 335.757812 196.042969 336.019531 196.21875 336.246094 196.445312 C 336.472656 196.671875 336.644531 196.933594 336.769531 197.230469 C 336.890625 197.523438 336.953125 197.832031 336.953125 198.152344 Z M 336.953125 198.152344 " fill-opacity="1" fill-rule="nonzero"/><path fill="#647496" d="M 336.953125 233.90625 C 336.953125 234.226562 336.890625 234.535156 336.769531 234.832031 C 336.648438 235.128906 336.472656 235.390625 336.246094 235.617188 C 336.019531 235.84375 335.757812 236.015625 335.464844 236.140625 C 335.167969 236.261719 334.859375 236.324219 334.539062 236.324219 C 334.21875 236.324219 333.914062 236.261719 333.617188 236.140625 C 333.320312 236.015625 333.058594 235.84375 332.832031 235.617188 C 332.609375 235.390625 332.433594 235.128906 332.3125 234.832031 C 332.1875 234.535156 332.128906 234.226562 332.128906 233.90625 C 332.128906 233.585938 332.1875 233.28125 332.3125 232.984375 C 332.433594 232.6875 332.609375 232.425781 332.835938 232.199219 C 333.058594 231.972656 333.320312 231.796875 333.617188 231.675781 C 333.914062 231.554688 334.21875 231.492188 334.539062 231.492188 C 334.859375 231.492188 335.167969 231.554688 335.464844 231.675781 C 335.757812 231.796875 336.019531 231.972656 336.246094 232.199219 C 336.472656 232.425781 336.648438 232.6875 336.769531 232.984375 C 336.890625 233.28125 336.953125 233.585938 336.953125 233.90625 Z M 336.953125 233.90625 " fill-opacity="1" fill-rule="nonzero"/><path fill="#e7e8ff" d="M 64.421875 184.347656 L 62.417969 196.367188 C 63.085938 199.039062 66.324219 204.382812 73.941406 204.382812 C 81.554688 204.382812 84.125 199.707031 84.460938 197.367188 L 81.957031 187.851562 C 88.96875 186.351562 88.46875 171.324219 85.964844 164.3125 C 83.460938 155.796875 70.433594 153.292969 62.417969 163.3125 C 56.40625 171.824219 60.914062 181.507812 64.421875 184.347656 Z M 64.421875 184.347656 " fill-opacity="1" fill-rule="nonzero"/><path fill="#0f5f6e" d="M 65.929688 181.84375 L 63.847656 188.5 C 63.671875 189.0625 62.921875 189.171875 62.578125 188.691406 C 46.824219 166.71875 53.5 158.277344 58.914062 156.800781 C 60.917969 152.792969 66.929688 149.285156 76.949219 147.785156 C 86.96875 146.28125 91.476562 153.292969 90.476562 160.804688 C 89.675781 166.816406 78.785156 166.984375 73.441406 166.316406 C 73.441406 168.320312 70.4375 178.835938 69.433594 177.835938 C 68.433594 176.832031 65.929688 170.824219 63.925781 174.328125 C 62.320312 177.132812 64.59375 180.507812 65.929688 181.84375 Z M 65.929688 181.84375 " fill-opacity="1" fill-rule="nonzero"/><path fill="#0f5f6e" d="M 73.941406 187.851562 C 78.351562 188.65625 81.121094 188.1875 81.957031 187.851562 L 82.960938 191.359375 C 78.148438 191.757812 74.945312 189.1875 73.941406 187.851562 Z M 73.941406 187.851562 " fill-opacity="1" fill-rule="nonzero"/><path fill="#647496" d="M 73.941406 201.375 C 81.558594 201.375 84.464844 197.367188 85.464844 195.367188 C 90.976562 195.367188 113.519531 200.375 122.035156 217.402344 C 130.550781 234.433594 133.054688 272.5 134.058594 278.507812 C 134.859375 283.316406 144.746094 309.5625 149.589844 322.085938 L 14.324219 322.085938 C 7.511719 322.085938 13.492188 284.6875 17.332031 265.988281 C 15.496094 258.308594 13.226562 238.839844 18.835938 222.414062 C 24.445312 205.984375 49.894531 197.535156 61.917969 195.367188 C 62.421875 197.367188 66.328125 201.375 73.941406 201.375 Z M 73.941406 201.375 " fill-opacity="1" fill-rule="nonzero"/><path fill="#0f5f6e" d="M 57.410156 272 L 53.402344 251.964844 L 62.421875 270.496094 C 77.949219 268.992188 91.308594 267.824219 95.484375 267.992188 C 91.878906 267.992188 62.921875 274.667969 48.894531 278.007812 Z M 57.410156 272 " fill-opacity="1" fill-rule="nonzero"/><path fill="#0f5f6e" d="M 107.757812 209.832031 C 107.761719 209.433594 108.085938 209.117188 108.484375 209.121094 L 114.800781 209.191406 C 115.195312 209.195312 115.515625 209.519531 115.511719 209.917969 L 115.476562 212.910156 C 115.472656 213.304688 115.792969 213.632812 116.1875 213.636719 L 125.824219 213.742188 C 126.222656 213.746094 126.539062 214.074219 126.535156 214.46875 L 126.480469 219.675781 C 126.472656 220.074219 126.148438 220.390625 125.75 220.386719 L 116.113281 220.28125 C 115.71875 220.277344 115.390625 220.59375 115.386719 220.992188 L 115.355469 223.984375 C 115.347656 224.378906 115.667969 224.707031 116.066406 224.710938 L 121.273438 224.769531 C 121.671875 224.773438 121.988281 225.097656 121.984375 225.496094 L 121.925781 230.703125 C 121.921875 231.097656 121.597656 231.417969 121.199219 231.414062 L 115.992188 231.355469 C 115.59375 231.351562 115.269531 231.667969 115.265625 232.066406 L 114.265625 321.4375 C 114.261719 321.835938 113.9375 322.152344 113.539062 322.148438 L 107.226562 322.078125 C 106.828125 322.074219 106.507812 321.75 106.515625 321.351562 Z M 107.757812 209.832031 " fill-opacity="1" fill-rule="evenodd"/><path fill="#0f5f6e" d="M 17.332031 265.988281 C 19.335938 282.515625 30.359375 305.355469 42.378906 310.566406 C 58.355469 316.671875 90.203125 298.542969 99.878906 290.898438 C 100.441406 290.425781 100.980469 289.96875 101.496094 289.527344 C 101.058594 289.933594 100.515625 290.390625 99.878906 290.898438 C 87.585938 301.171875 63.476562 318.382812 42.882812 314.070312 C 26.351562 310.0625 17 286.191406 15.828125 273.5 Z M 17.332031 265.988281 " fill-opacity="1" fill-rule="nonzero"/><path fill="#0f5f6e" d="M 57.910156 311.566406 C 47.890625 302.351562 35.035156 301.382812 29.855469 302.050781 C 31.359375 304.21875 35.867188 309.164062 41.878906 311.566406 C 47.890625 313.96875 55.074219 312.570312 57.910156 311.566406 Z M 57.910156 311.566406 " fill-opacity="1" fill-rule="nonzero"/><path fill="#e7e8ff" d="M 101.238281 266.9375 C 101.238281 268.453125 98.738281 270.730469 97.488281 271.683594 L 99.832031 284.019531 C 100.457031 283.703125 103.304688 282.40625 105.929688 281.644531 C 109.214844 280.699219 115.78125 280.699219 118.59375 277.851562 C 121.40625 275.003906 120.9375 263.613281 118.59375 261.242188 C 116.71875 259.34375 110.308594 262.664062 107.335938 264.5625 L 107.335938 256.972656 C 102.648438 258.871094 101.238281 265.039062 101.238281 266.9375 Z M 101.238281 266.9375 " fill-opacity="1" fill-rule="nonzero"/><path fill="#0f5f6e" d="M 119.53125 233.933594 C 120.734375 246.753906 123.371094 298.042969 124.539062 322.085938 L 128.046875 322.085938 Z M 119.53125 233.933594 " fill-opacity="1" fill-rule="nonzero"/></svg>