<svg xmlns="http://www.w3.org/2000/svg" xmlns:xlink="http://www.w3.org/1999/xlink" width="500" zoomAndPan="magnify" viewBox="0 0 375 374.999991" height="500" preserveAspectRatio="xMidYMid meet" version="1.0"><defs><clipPath id="ec817f4fab"><path d="M 22 29 L 355 29 L 355 337.402344 L 22 337.402344 Z M 22 29 " clip-rule="nonzero"/></clipPath></defs><rect x="-37.5" width="450" fill="#ffffff" y="-37.499999" height="449.999989" fill-opacity="1"/><rect x="-37.5" width="450" fill="#ffffff" y="-37.499999" height="449.999989" fill-opacity="1"/><g clip-path="url(#ec817f4fab)"><path fill="#e7e8ff" d="M 115.921875 337.367188 L 270.914062 337.367188 C 288.789062 337.367188 306.046875 330.832031 319.445312 318.988281 L 335.449219 304.839844 C 362.652344 280.792969 360.375 237.660156 330.792969 216.613281 C 306.988281 199.675781 300.0625 167.335938 314.839844 142.121094 L 316.511719 139.269531 C 329.871094 116.476562 326.757812 87.621094 308.84375 68.207031 L 287.242188 44.796875 C 265.882812 21.648438 228.496094 24.664062 211.121094 50.9375 C 197.90625 70.914062 172.109375 78.265625 150.363281 68.25 L 140.917969 63.898438 C 113.789062 51.40625 81.605469 60.53125 65.0625 85.414062 L 54.453125 101.363281 C 43.957031 117.144531 42.671875 137.332031 51.082031 154.316406 C 60.75 173.84375 57.503906 197.304688 42.898438 213.464844 L 38.640625 218.175781 C 12.054688 247.59375 19.285156 294.046875 53.558594 313.972656 L 74.667969 326.246094 C 87.199219 333.53125 101.429688 337.367188 115.921875 337.367188 Z M 115.921875 337.367188 " fill-opacity="1" fill-rule="nonzero"/></g><path fill="#0f5f6e" d="M 345.25 292.039062 C 345.511719 311.929688 331.980469 328.726562 325.109375 334.609375 L 314.574219 334.609375 C 322.40625 308.066406 335.347656 294.867188 342.601562 290.476562 C 343.808594 289.746094 345.230469 290.621094 345.25 292.039062 Z M 345.25 292.039062 " fill-opacity="1" fill-rule="nonzero"/><path fill="#ffffff" d="M 346.363281 226.769531 C 357.152344 267.445312 329.957031 315.621094 318.261719 333.550781 L 294.566406 333.550781 C 304.742188 256.804688 321.808594 238.152344 343.382812 225.546875 C 344.539062 224.871094 346.015625 225.46875 346.363281 226.769531 Z M 346.363281 226.769531 " fill-opacity="1" fill-rule="nonzero"/><path fill="#0f5f6e" d="M 343.910156 226.460938 C 344.480469 226.128906 345.183594 226.425781 345.34375 227.039062 C 350.660156 247.078125 346.632812 269.050781 339.75 288.332031 C 332.996094 307.257812 323.539062 323.46875 317.691406 332.496094 L 295.769531 332.496094 C 300.832031 294.871094 307.566406 271.492188 315.632812 255.984375 C 323.757812 240.367188 333.253906 232.6875 343.910156 226.460938 Z M 347.378906 226.496094 C 346.851562 224.511719 344.597656 223.613281 342.851562 224.636719 C 331.9375 231.011719 322.113281 238.960938 313.765625 255.007812 C 305.449219 271 298.617188 294.992188 293.519531 333.414062 L 293.363281 334.609375 L 318.832031 334.609375 L 319.144531 334.128906 C 325.015625 325.125 334.785156 308.519531 341.734375 289.042969 C 348.679688 269.585938 352.855469 247.132812 347.378906 226.496094 Z M 347.378906 226.496094 " fill-opacity="1" fill-rule="evenodd"/><path fill="#0f5f6e" d="M 308.15625 251.792969 C 317.472656 285.878906 306.804688 321.304688 299.832031 334.609375 L 282.453125 334.609375 C 278.542969 293.066406 294.429688 262.855469 304.878906 250.980469 C 305.90625 249.808594 307.742188 250.285156 308.15625 251.792969 Z M 308.15625 251.792969 " fill-opacity="1" fill-rule="nonzero"/><path fill="#0f5f6e" d="M 331.609375 255.710938 L 337.277344 239.742188 L 339.261719 240.449219 L 326.277344 277.027344 L 334.808594 274.460938 L 335.414062 276.484375 L 325.402344 279.496094 L 313.59375 312.765625 L 324.222656 308.800781 L 324.957031 310.78125 L 312.671875 315.363281 L 306.089844 333.90625 L 304.105469 333.199219 L 317.472656 295.535156 L 312.53125 281.636719 L 314.515625 280.925781 L 318.589844 292.390625 L 330.414062 259.074219 L 326.730469 246.734375 L 328.75 246.128906 Z M 331.609375 255.710938 " fill-opacity="1" fill-rule="evenodd"/><path fill="#ffffff" d="M 299.265625 279.011719 L 301.953125 264.195312 L 304.027344 264.574219 L 298.574219 294.648438 L 305.660156 290.90625 L 306.640625 292.773438 L 298.09375 297.289062 L 293.417969 323.082031 L 299.277344 318.464844 L 300.578125 320.125 L 292.847656 326.214844 L 291.386719 334.269531 L 289.316406 333.890625 L 293.0625 313.230469 L 286.882812 305.15625 L 288.554688 303.871094 L 293.570312 310.425781 L 298.796875 281.609375 L 293.792969 276.1875 L 295.335938 274.753906 Z M 299.265625 279.011719 " fill-opacity="1" fill-rule="evenodd"/><path fill="#ffffff" d="M 113.347656 85.058594 L 117.398438 86.042969 C 118.117188 86.214844 118.191406 87.214844 117.503906 87.492188 L 113.726562 89.015625 C 113.5 89.109375 113.332031 89.304688 113.273438 89.542969 L 112.222656 93.875 C 112.054688 94.574219 111.105469 94.671875 110.792969 94.027344 L 108.839844 89.96875 C 108.746094 89.769531 108.570312 89.621094 108.359375 89.5625 L 103.601562 88.21875 C 102.894531 88.019531 102.847656 87.03125 103.535156 86.769531 L 107.867188 85.109375 C 108.078125 85.027344 108.242188 84.859375 108.316406 84.644531 L 109.957031 79.871094 C 110.195312 79.171875 111.195312 79.191406 111.410156 79.902344 L 112.792969 84.535156 C 112.871094 84.796875 113.082031 84.996094 113.347656 85.058594 Z M 113.347656 85.058594 " fill-opacity="1" fill-rule="nonzero"/><path fill="#ffffff" d="M 80.964844 125.042969 L 82.011719 125.894531 C 82.585938 126.359375 82.226562 127.292969 81.484375 127.25 L 80.179688 127.167969 C 79.933594 127.15625 79.695312 127.257812 79.542969 127.449219 L 78.511719 128.71875 C 78.058594 129.277344 77.160156 128.957031 77.15625 128.242188 L 77.148438 126.558594 C 77.148438 126.339844 77.054688 126.132812 76.890625 125.988281 L 75.476562 124.75 C 74.921875 124.265625 75.304688 123.355469 76.039062 123.414062 L 77.722656 123.546875 C 77.949219 123.5625 78.167969 123.480469 78.328125 123.316406 L 79.660156 121.957031 C 80.179688 121.429688 81.074219 121.875 80.960938 122.609375 L 80.691406 124.335938 C 80.652344 124.601562 80.757812 124.875 80.964844 125.042969 Z M 80.964844 125.042969 " fill-opacity="1" fill-rule="nonzero"/><path fill="#647496" d="M 333.742188 187.015625 L 330.707031 191.132812 C 330.523438 191.386719 330.222656 191.507812 329.929688 191.445312 L 326.179688 190.703125 C 325.371094 190.542969 324.886719 191.617188 325.507812 192.183594 L 328.453125 194.867188 C 328.667969 195.0625 328.769531 195.363281 328.722656 195.660156 L 327.984375 200.085938 C 327.84375 200.917969 328.808594 201.433594 329.355469 200.816406 L 332.382812 197.417969 C 332.5625 197.21875 332.820312 197.121094 333.074219 197.160156 L 336.578125 197.664062 C 337.367188 197.777344 337.816406 196.734375 337.214844 196.179688 L 334.609375 193.769531 C 334.398438 193.578125 334.300781 193.28125 334.34375 192.992188 L 335.167969 187.675781 C 335.300781 186.808594 334.253906 186.320312 333.742188 187.015625 Z M 333.742188 187.015625 " fill-opacity="1" fill-rule="nonzero"/><path fill="#ffffff" d="M 150.347656 77.949219 C 150.347656 71.851562 155.289062 66.910156 161.382812 66.910156 L 286.925781 66.910156 C 293.019531 66.910156 297.960938 71.851562 297.960938 77.949219 L 297.960938 323.53125 C 297.960938 329.628906 293.019531 334.574219 286.925781 334.574219 L 161.382812 334.574219 C 155.289062 334.574219 150.347656 329.628906 150.347656 323.53125 Z M 150.347656 77.949219 " fill-opacity="1" fill-rule="nonzero"/><path fill="#0f5f6e" d="M 149.429688 77.949219 C 149.429688 71.34375 154.78125 65.992188 161.382812 65.992188 L 286.925781 65.992188 C 293.527344 65.992188 298.878906 71.34375 298.878906 77.949219 L 298.878906 323.53125 C 298.878906 330.136719 293.527344 335.492188 286.925781 335.492188 L 161.382812 335.492188 C 154.78125 335.492188 149.429688 330.136719 149.429688 323.53125 Z M 161.382812 67.832031 C 155.796875 67.832031 151.269531 72.363281 151.269531 77.949219 L 151.269531 323.53125 C 151.269531 329.121094 155.796875 333.652344 161.382812 333.652344 L 286.925781 333.652344 C 292.511719 333.652344 297.039062 329.121094 297.039062 323.53125 L 297.039062 77.949219 C 297.039062 72.363281 292.511719 67.832031 286.925781 67.832031 Z M 161.382812 67.832031 " fill-opacity="1" fill-rule="evenodd"/><path fill="#e7e8ff" d="M 267.132812 165.332031 C 267.132812 189.210938 247.785156 208.570312 223.914062 208.570312 C 200.042969 208.570312 180.695312 189.210938 180.695312 165.332031 C 180.695312 141.453125 200.042969 122.09375 223.914062 122.09375 C 247.785156 122.09375 267.132812 141.453125 267.132812 165.332031 Z M 267.132812 165.332031 " fill-opacity="1" fill-rule="nonzero"/><path fill="#0f5f6e" d="M 194.804688 75.882812 L 190.019531 66.910156 L 258.289062 66.910156 L 252.664062 76.289062 C 251.003906 79.058594 248.011719 80.753906 244.78125 80.753906 L 202.917969 80.753906 C 199.519531 80.753906 196.402344 78.882812 194.804688 75.882812 Z M 194.804688 75.882812 " fill-opacity="1" fill-rule="nonzero"/><path fill="#0f5f6e" d="M 296.148438 72.449219 L 151.21875 72.449219 C 156.015625 67.648438 160.597656 66.757812 162.289062 66.910156 L 285.078125 66.910156 C 290.980469 66.910156 294.917969 70.601562 296.148438 72.449219 Z M 296.148438 72.449219 " fill-opacity="1" fill-rule="nonzero"/><path fill="#0f5f6e" d="M 296.039062 329.324219 L 152.1875 329.324219 C 157.171875 334.199219 160.054688 335.109375 161.8125 334.949219 L 286.414062 334.949219 C 292.550781 334.949219 294.757812 331.199219 296.039062 329.324219 Z M 296.039062 329.324219 " fill-opacity="1" fill-rule="nonzero"/><path fill="#647496" d="M 171.5 101.855469 C 171.5 100.835938 172.320312 100.011719 173.335938 100.011719 L 222.308594 100.011719 C 223.324219 100.011719 224.148438 100.835938 224.148438 101.855469 L 224.148438 103.816406 C 224.148438 104.832031 223.324219 105.65625 222.308594 105.65625 L 173.335938 105.65625 C 172.320312 105.65625 171.5 104.832031 171.5 103.816406 Z M 171.5 101.855469 " fill-opacity="1" fill-rule="nonzero"/><path fill="#0f5f6e" d="M 171.5 226.050781 C 171.5 225.035156 172.320312 224.210938 173.335938 224.210938 L 222.308594 224.210938 C 223.324219 224.210938 224.148438 225.035156 224.148438 226.050781 L 224.148438 228.015625 C 224.148438 229.03125 223.324219 229.855469 222.308594 229.855469 L 173.335938 229.855469 C 172.320312 229.855469 171.5 229.03125 171.5 228.015625 Z M 171.5 226.050781 " fill-opacity="1" fill-rule="nonzero"/><path fill="#0f5f6e" d="M 171.5 274.808594 C 171.5 273.792969 172.320312 272.96875 173.335938 272.96875 L 202.765625 272.96875 C 203.78125 272.96875 204.601562 273.792969 204.601562 274.808594 L 204.601562 276.648438 C 204.601562 277.667969 203.78125 278.488281 202.765625 278.488281 L 173.335938 278.488281 C 172.320312 278.488281 171.5 277.667969 171.5 276.648438 Z M 171.5 274.808594 " fill-opacity="1" fill-rule="nonzero"/><path fill="#e7e8ff" d="M 171.5 239.851562 C 171.5 238.835938 172.320312 238.011719 173.335938 238.011719 L 271.730469 238.011719 C 272.75 238.011719 273.570312 238.835938 273.570312 239.851562 L 273.570312 258.25 C 273.570312 259.265625 272.75 260.089844 271.730469 260.089844 L 173.335938 260.089844 C 172.320312 260.089844 171.5 259.265625 171.5 258.25 Z M 171.5 239.851562 " fill-opacity="1" fill-rule="nonzero"/><path fill="#e7e8ff" d="M 171.5 287.691406 C 171.5 286.671875 172.320312 285.851562 173.335938 285.851562 L 271.730469 285.851562 C 272.75 285.851562 273.570312 286.671875 273.570312 287.691406 L 273.570312 306.089844 C 273.570312 307.105469 272.75 307.929688 271.730469 307.929688 L 173.335938 307.929688 C 172.320312 307.929688 171.5 307.105469 171.5 306.089844 Z M 171.5 287.691406 " fill-opacity="1" fill-rule="nonzero"/><path fill="#0f5f6e" d="M 285.757812 80.0625 L 287.597656 80.0625 L 287.597656 87.589844 L 285.757812 87.589844 Z M 285.757812 80.0625 " fill-opacity="1" fill-rule="evenodd"/><path fill="#0f5f6e" d="M 281.054688 81.003906 L 282.894531 81.003906 L 282.894531 87.589844 L 281.054688 87.589844 Z M 281.054688 81.003906 " fill-opacity="1" fill-rule="evenodd"/><path fill="#0f5f6e" d="M 276.355469 82.882812 L 278.195312 82.882812 L 278.195312 87.585938 L 276.355469 87.585938 Z M 276.355469 82.882812 " fill-opacity="1" fill-rule="evenodd"/><path fill="#0f5f6e" d="M 271.652344 84.765625 L 273.492188 84.765625 L 273.492188 87.589844 L 271.652344 87.589844 Z M 271.652344 84.765625 " fill-opacity="1" fill-rule="evenodd"/><path fill="#ffffff" d="M 224.328125 165.855469 C 212.164062 165.855469 202.140625 175.164062 200.796875 187.148438 C 200.625 188.664062 201.875 189.90625 203.398438 189.90625 L 245.257812 189.90625 C 246.78125 189.90625 248.035156 188.664062 247.863281 187.148438 C 246.515625 175.164062 236.492188 165.855469 224.328125 165.855469 Z M 224.328125 165.855469 " fill-opacity="1" fill-rule="nonzero"/><path fill="#ffffff" d="M 235.996094 151.707031 C 235.996094 157.957031 230.929688 163.023438 224.679688 163.023438 C 218.433594 163.023438 213.367188 157.957031 213.367188 151.707031 C 213.367188 145.453125 218.433594 140.386719 224.679688 140.386719 C 230.929688 140.386719 235.996094 145.453125 235.996094 151.707031 Z M 235.996094 151.707031 " fill-opacity="1" fill-rule="nonzero"/><path fill="#e7e8ff" d="M 128.359375 188.367188 L 132.09375 199.929688 C 133.589844 205.363281 128.359375 211.085938 115.902344 211.085938 C 105.941406 211.085938 103.953125 205.390625 104.449219 200.78125 L 107.433594 184.910156 C 104.945312 182.441406 102.953125 180.957031 102.953125 169.105469 C 102.953125 154.289062 110.921875 148.855469 120.386719 148.855469 C 129.851562 148.855469 137.824219 156.75 137.824219 171.082031 C 137.824219 183.429688 131.179688 187.378906 128.359375 188.367188 Z M 128.359375 188.367188 " fill-opacity="1" fill-rule="nonzero"/><path fill="#0f5f6e" d="M 151.996094 177.535156 C 159.40625 185.269531 158.414062 204.308594 157.277344 210.105469 C 145.273438 201.203125 137.148438 198.253906 132.945312 197.914062 C 132.265625 197.859375 132.144531 199.433594 131.667969 199.503906 L 128.101562 187.6875 C 133.464844 186.234375 136.878906 181.402344 137.367188 170.285156 C 137.757812 161.390625 133.304688 155.300781 131.027344 153.367188 C 123.226562 152.882812 119.324219 162.550781 116.886719 166.417969 C 114.933594 169.511719 113.472656 168.996094 112.984375 168.351562 C 110.546875 162.550781 106.15625 162.070312 105.183594 168.351562 C 104.402344 173.378906 108.109375 175.925781 110.058594 176.570312 L 104.449219 201.210938 C 103.792969 201.246094 103.171875 199.074219 103.171875 198.109375 C 92.75 199.265625 81.304688 204.777344 77.886719 207.066406 C 76.421875 191.597656 90.550781 179.953125 94.453125 170.285156 C 98.355469 160.617188 92.992188 155.785156 96.890625 149.5 C 99.785156 144.84375 105.183594 144.183594 108.59375 143.21875 C 112.007812 142.25 113.960938 138.382812 117.859375 136.449219 C 124.6875 134.035156 131.191406 139.996094 132.976562 144.183594 C 134.117188 144.023438 137.367188 144.472656 141.265625 147.566406 C 152.484375 155.300781 142.730469 167.867188 151.996094 177.535156 Z M 151.996094 177.535156 " fill-opacity="1" fill-rule="nonzero"/><path fill="#0f5f6e" d="M 118.449219 187.75 C 124.261719 189.109375 127.652344 188.601562 128.621094 188.175781 L 130.074219 192.855469 C 123.875 193.535156 119.742188 189.734375 118.449219 187.75 Z M 118.449219 187.75 " fill-opacity="1" fill-rule="nonzero"/><path fill="#647496" d="M 117.148438 206.609375 C 126.929688 206.609375 131.519531 200.582031 132.59375 197.566406 C 151.253906 197.566406 166.699219 210.488281 173.777344 219.53125 C 180.855469 228.574219 207.242188 276.375 200.804688 295.753906 C 195.65625 311.257812 183.214844 313.625 176.351562 312.546875 L 177.488281 333.097656 C 177.570312 334.566406 176.40625 335.800781 174.941406 335.800781 L 80.464844 335.800781 C 70.597656 336.449219 49.0625 336.707031 41.855469 332.574219 C 32.84375 327.40625 24.480469 300.921875 41.855469 248.597656 C 55.753906 206.742188 88.402344 197.136719 102.988281 197.566406 C 103.632812 200.582031 107.367188 206.609375 117.148438 206.609375 Z M 117.148438 206.609375 " fill-opacity="1" fill-rule="nonzero"/><path fill="#0f5f6e" d="M 70.285156 335.839844 C 54.769531 316.859375 38.367188 310.089844 32.105469 309.074219 C 32.105469 315.15625 35.132812 326.714844 40.589844 332.191406 C 44.953125 336.570312 62.203125 336.449219 70.285156 335.839844 Z M 70.285156 335.839844 " fill-opacity="1" fill-rule="nonzero"/><path fill="#0f5f6e" d="M 190.277344 310.292969 C 200.460938 306.398438 202.195312 292.449219 201.792969 285.960938 C 192.582031 290.339844 180.175781 305.222656 175.125 312.117188 C 175.933594 313.128906 180.097656 314.183594 190.277344 310.292969 Z M 190.277344 310.292969 " fill-opacity="1" fill-rule="nonzero"/><path fill="#0f5f6e" d="M 115.859375 266.039062 C 111.355469 267.976562 77.894531 283.695312 62.449219 291.230469 C 64.378906 288 72.101562 282.835938 74.03125 280.894531 C 75.960938 278.957031 83.039062 256.351562 83.039062 259.578125 C 83.039062 262.808594 79.179688 277.667969 81.109375 277.667969 C 83.039062 277.667969 110.070312 266.039062 115.859375 266.039062 Z M 115.859375 266.039062 " fill-opacity="1" fill-rule="nonzero"/><path fill="#0f5f6e" d="M 129.375 284.773438 C 102.089844 321.460938 79.824219 334.511719 72.101562 336.449219 L 85.613281 336.449219 C 108.78125 318.363281 124.441406 294.460938 129.375 284.773438 Z M 129.375 284.773438 " fill-opacity="1" fill-rule="nonzero"/><path fill="#0f5f6e" d="M 162.835938 278.3125 C 163.867188 290.714844 172.707031 306.304688 176.996094 312.546875 L 176.996094 318.363281 C 167.214844 307.511719 163.480469 287.140625 162.835938 278.3125 Z M 162.835938 278.3125 " fill-opacity="1" fill-rule="nonzero"/><path fill="#0f5f6e" d="M 175.066406 260.871094 C 178.667969 262.9375 185.148438 267.761719 187.9375 269.914062 L 177.640625 257.640625 C 177.125 259.710938 175.707031 260.65625 175.066406 260.871094 Z M 175.066406 260.871094 " fill-opacity="1" fill-rule="nonzero"/><path fill="#ffffff" d="M 137.023438 237.039062 L 132.0625 285.582031 C 132.007812 286.148438 132.503906 286.609375 133.058594 286.511719 L 156.445312 282.296875 C 156.804688 282.230469 157.082031 281.945312 157.136719 281.582031 L 163.96875 235.441406 C 164.050781 234.898438 163.609375 234.425781 163.066406 234.464844 L 137.808594 236.273438 C 137.398438 236.304688 137.066406 236.625 137.023438 237.039062 Z M 137.023438 237.039062 " fill-opacity="1" fill-rule="nonzero"/><path fill="#0f5f6e" d="M 163.007812 233.613281 C 164.09375 233.535156 164.96875 234.484375 164.808594 235.566406 L 157.976562 281.707031 C 157.871094 282.433594 157.3125 283.007812 156.59375 283.136719 L 133.210938 287.351562 C 132.097656 287.550781 131.101562 286.625 131.21875 285.496094 L 136.179688 236.953125 C 136.261719 236.125 136.925781 235.480469 137.75 235.421875 Z M 163.128906 235.316406 L 137.871094 237.125 L 132.910156 285.667969 L 156.292969 281.457031 Z M 163.128906 235.316406 " fill-opacity="1" fill-rule="evenodd"/><path fill="#e7e8ff" d="M 170.558594 260.871094 L 162.839844 272.5 C 152.542969 273.144531 150.609375 267.332031 152.542969 258.289062 C 154.085938 251.054688 159.835938 250.96875 162.195312 251.828125 L 163.480469 246.660156 C 170.558594 252.476562 170.558594 258.074219 170.558594 260.871094 Z M 170.558594 260.871094 " fill-opacity="1" fill-rule="nonzero"/><path fill="#e7e8ff" d="M 125.511719 259.582031 C 123.96875 263.714844 121.007812 266.46875 119.722656 267.332031 L 128.085938 280.25 C 130.660156 277.667969 133.878906 277.667969 140.957031 274.4375 C 148.039062 271.207031 149.96875 259.582031 148.039062 253.121094 C 146.492188 247.953125 137.527344 251.828125 133.878906 254.414062 L 134.523438 247.308594 C 130.019531 249.246094 127.445312 254.414062 125.511719 259.582031 Z M 125.511719 259.582031 " fill-opacity="1" fill-rule="nonzero"/><path fill="#ffffff" d="M 349.894531 138.652344 C 349.894531 155.925781 335.898438 169.933594 318.628906 169.933594 C 301.363281 169.933594 287.367188 155.925781 287.367188 138.652344 C 287.367188 121.378906 301.363281 107.375 318.628906 107.375 C 335.898438 107.375 349.894531 121.378906 349.894531 138.652344 Z M 349.894531 138.652344 " fill-opacity="1" fill-rule="nonzero"/><path fill="#0f5f6e" d="M 318.628906 108.140625 C 301.789062 108.140625 288.132812 121.800781 288.132812 138.652344 C 288.132812 155.503906 301.789062 169.164062 318.628906 169.164062 C 335.472656 169.164062 349.128906 155.503906 349.128906 138.652344 C 349.128906 121.800781 335.472656 108.140625 318.628906 108.140625 Z M 286.597656 138.652344 C 286.597656 120.953125 300.9375 106.605469 318.628906 106.605469 C 336.324219 106.605469 350.664062 120.953125 350.664062 138.652344 C 350.664062 156.351562 336.324219 170.703125 318.628906 170.703125 C 300.9375 170.703125 286.597656 156.351562 286.597656 138.652344 Z M 286.597656 138.652344 " fill-opacity="1" fill-rule="evenodd"/><path fill="#0f5f6e" d="M 319 119.289062 C 313.039062 119.289062 308.207031 124.203125 308.207031 130.265625 L 308.207031 137.78125 C 308.207031 138.675781 308.929688 139.398438 309.820312 139.398438 C 310.710938 139.398438 311.433594 138.675781 311.433594 137.78125 L 311.433594 130.0625 C 311.433594 125.8125 314.820312 122.367188 319 122.367188 C 323.179688 122.367188 326.566406 125.8125 326.566406 130.0625 L 326.566406 137.378906 C 326.566406 138.273438 327.289062 138.996094 328.179688 138.996094 C 329.070312 138.996094 329.792969 138.273438 329.792969 137.378906 L 329.792969 130.265625 C 329.792969 124.203125 324.960938 119.289062 319 119.289062 Z M 319 119.289062 " fill-opacity="1" fill-rule="evenodd"/><path fill="#647496" d="M 305.226562 137.980469 C 305.226562 136.707031 306.261719 135.671875 307.535156 135.671875 L 330.464844 135.671875 C 331.738281 135.671875 332.773438 136.707031 332.773438 137.980469 L 332.773438 154.964844 C 332.773438 156.238281 331.738281 157.269531 330.464844 157.269531 L 307.535156 157.269531 C 306.261719 157.269531 305.226562 156.238281 305.226562 154.964844 Z M 305.226562 137.980469 " fill-opacity="1" fill-rule="nonzero"/><path fill="#ffffff" d="M 320.757812 147.367188 C 321.394531 146.851562 321.800781 146.0625 321.800781 145.179688 C 321.800781 143.632812 320.546875 142.375 319 142.375 C 317.453125 142.375 316.195312 143.632812 316.195312 145.179688 C 316.195312 146.144531 316.683594 146.992188 317.417969 147.496094 L 316.792969 150.125 C 316.703125 150.515625 317 150.894531 317.398438 150.894531 L 320.808594 150.894531 C 321.207031 150.894531 321.503906 150.515625 321.414062 150.125 Z M 320.757812 147.367188 " fill-opacity="1" fill-rule="evenodd"/></svg>